<?xml version="1.0" encoding="utf-8"?><svg xmlns="http://www.w3.org/2000/svg" xmlns:xlink="http://www.w3.org/1999/xlink"><defs><svg viewBox="0 0 24 24" id="access-time" xmlns="http://www.w3.org/2000/svg"><path d="M11.99 2C6.47 2 2 6.48 2 12s4.47 10 9.99 10C17.52 22 22 17.52 22 12S17.52 2 11.99 2zM12 20c-4.42 0-8-3.58-8-8s3.58-8 8-8 8 3.58 8 8-3.58 8-8 8z"/><path d="M0 0h24v24H0z" fill="none"/><path d="M12.5 7H11v6l5.25 3.15.75-1.23-4.5-2.67z"/></svg><svg viewBox="0 0 24 24" id="add" xmlns="http://www.w3.org/2000/svg"><path fill="none" d="M0 0h24v24H0V0z"/><path d="M19 13h-6v6h-2v-6H5v-2h6V5h2v6h6v2z"/></svg><svg viewBox="0 0 40 40" id="add-star-custom" xmlns="http://www.w3.org/2000/svg"><path d="M20 32.004l-11.7 6.11 2.192-13.016-9.426-9.243 13.059-1.933L20 2.102l5.875 11.82 13.059 1.933-9.426 9.243 2.191 13.015z" fill="#98ccfd"/><path d="M20 3.227l5.313 10.683.23.469.516.074 11.804 1.75-8.523 8.356-.371.363.086.515 1.984 11.766-10.578-5.523-.461-.24-.465.243-10.574 5.52 1.984-11.767.086-.515-.375-.363-8.52-8.356 11.805-1.746.516-.078.23-.469L20 3.227M20 .98l-6.207 12.485L0 15.512l9.957 9.758-2.316 13.75L20 32.566l12.36 6.454-2.317-13.75L40 15.512l-13.793-2.047z" fill="#4788c7"/><path d="M14 22h12m-6-6v12" fill="none" stroke-width="2" stroke="#fff" stroke-miterlimit="10"/></svg><svg viewBox="0 0 24 24" id="ads" xmlns="http://www.w3.org/2000/svg"><path d="M20 3l-1 1.285L6 9v6l2.451.889-.283.8c-.213.601.101 1.26.703 1.473l2.178.772a1.156 1.156 0 0 0 1.474-.705l.27-.764L19 19.715 20 21h2V3h-2zm0 3.05v11.9l-.318-.116L8 13.598v-3.196l11.682-4.236.318-.115zM2 9v6h2V9H2z"/></svg><svg viewBox="0 0 64 64" id="archive-file-custom" xmlns="http://www.w3.org/2000/svg"><path d="M21.656 4c-1.336 0-2.59.52-3.535 1.465L9.465 14.12A4.964 4.964 0 0 0 8 17.656V57c0 1.652 1.348 3 3 3h40c1.652 0 3-1.348 3-3V7c0-1.652-1.348-3-3-3zM22 6h14v21.594A6.95 6.95 0 0 0 33.227 27h-.454c-.984 0-1.914.223-2.773.594V9a1 1 0 1 0-2 0v19.902a6.965 6.965 0 0 0-2.047 3.524l-1.078 4.672a3.978 3.978 0 0 0 .766 3.39A3.982 3.982 0 0 0 28.77 42h8.46c1.227 0 2.364-.55 3.13-1.512a3.978 3.978 0 0 0 .765-3.39l-1.078-4.672A6.938 6.938 0 0 0 38 28.902V6h13c.55 0 1 .45 1 1v50c0 .55-.45 1-1 1H11c-.55 0-1-.45-1-1V18h9c1.652 0 3-1.348 3-3zm-2 .5V15c0 .55-.45 1-1 1h-8.5c.11-.164.234-.32.379-.465l8.656-8.656c.145-.14.3-.27.465-.379zM32 8a1 1 0 1 0 0 2h2a1 1 0 1 0 0-2zm0 5a1 1 0 1 0 0 2h2a1 1 0 1 0 0-2zm0 5a1 1 0 1 0 0 2h2a1 1 0 1 0 0-2zm0 5a1 1 0 1 0 0 2h2a1 1 0 1 0 0-2zm.773 6h.454a4.972 4.972 0 0 1 4.87 3.875l1.079 4.676c.14.597 0 1.215-.38 1.695A2.008 2.008 0 0 1 37.23 40h-8.46a2 2 0 0 1-1.946-2.45l1.078-4.675A4.975 4.975 0 0 1 32.773 29zM31 34a1 1 0 1 0 0 2h4a1 1 0 1 0 0-2zM13 52a1 1 0 1 0 0 2h4a1 1 0 1 0 0-2zm8 0a1 1 0 1 0 0 2h28a1 1 0 1 0 0-2z"/></svg><svg viewBox="0 0 24 24" id="arrow-back" xmlns="http://www.w3.org/2000/svg"><path fill="none" d="M0 0h24v24H0V0z"/><path d="M20 11H7.83l5.59-5.59L12 4l-8 8 8 8 1.41-1.41L7.83 13H20v-2z"/></svg><svg viewBox="0 0 24 24" id="arrow-downward" xmlns="http://www.w3.org/2000/svg"><path fill="none" d="M0 0h24v24H0V0z"/><path d="M20 12l-1.41-1.41L13 16.17V4h-2v12.17l-5.58-5.59L4 12l8 8 8-8z"/></svg><svg viewBox="0 0 24 24" id="arrow-drop-down" xmlns="http://www.w3.org/2000/svg"><path fill="none" d="M0 0h24v24H0V0z"/><path d="M7 10l5 5 5-5H7z"/></svg><svg viewBox="0 0 24 24" id="assignment" xmlns="http://www.w3.org/2000/svg"><path fill="none" d="M0 0h24v24H0V0z"/><path d="M7 15h7v2H7zm0-4h10v2H7zm0-4h10v2H7zm12-4h-4.18C14.4 1.84 13.3 1 12 1c-1.3 0-2.4.84-2.82 2H5c-.14 0-.27.01-.4.04a2.008 2.008 0 0 0-1.44 1.19c-.1.23-.16.49-.16.77v14c0 .27.06.54.16.78s.25.45.43.64c.27.27.62.47 1.01.55.13.02.26.03.4.03h14c1.1 0 2-.9 2-2V5c0-1.1-.9-2-2-2zm-7-.25c.41 0 .75.34.75.75s-.34.75-.75.75-.75-.34-.75-.75.34-.75.75-.75zM19 19H5V5h14v14z"/></svg><svg viewBox="0 0 24 24" id="attachment" xmlns="http://www.w3.org/2000/svg"><path fill="none" d="M0 0h24v24H0V0z"/><path d="M18.5 16H7c-2.21 0-4-1.79-4-4s1.79-4 4-4h12.5a2.5 2.5 0 0 1 0 5H9c-.55 0-1-.45-1-1s.45-1 1-1h9.5V9.5H9a2.5 2.5 0 0 0 0 5h10.5c2.21 0 4-1.79 4-4s-1.79-4-4-4H7c-3.04 0-5.5 2.46-5.5 5.5s2.46 5.5 5.5 5.5h11.5V16z"/></svg><svg viewBox="0 0 64 64" id="audio-file-custom" xmlns="http://www.w3.org/2000/svg"><path d="M21.656 4a4.96 4.96 0 0 0-3.535 1.465L9.465 14.12A4.964 4.964 0 0 0 8 17.656V57c0 1.652 1.348 3 3 3h40c1.652 0 3-1.348 3-3V7c0-1.652-1.348-3-3-3zM22 6h29c.55 0 1 .45 1 1v50c0 .55-.45 1-1 1H11c-.55 0-1-.45-1-1V18h9c1.652 0 3-1.348 3-3zm-2 .5V15c0 .55-.45 1-1 1h-8.5c.11-.164.234-.32.379-.465l8.656-8.656c.145-.145.3-.27.465-.379zm22.781 11.523l-18 4A1.003 1.003 0 0 0 24 23v14c-3.309 0-6 2.242-6 5s2.691 5 6 5 6-2.242 6-5V29.91l8-1.773V33c-3.309 0-6 2.242-6 5s2.691 5 6 5 6-2.242 6-5V19a.998.998 0 0 0-1.219-.977zM42 20.246V38c0 1.652-1.793 3-4 3s-4-1.348-4-3 1.793-3 4-3c.281 0 .563.023.84.066a.998.998 0 0 0 1.16-.988v-7.187a.998.998 0 0 0-.375-.782 1.02 1.02 0 0 0-.844-.199l-10 2.227a1.002 1.002 0 0 0-.781.972V42c0 1.652-1.793 3-4 3s-4-1.348-4-3 1.793-3 4-3c.281 0 .563.023.84.066a.994.994 0 0 0 1.16-.988V23.801zM13 52a1 1 0 0 0-1 1v2a1 1 0 1 0 2 0v-2a1 1 0 0 0-1-1zm5 0a1 1 0 0 0-1 1v2a1 1 0 1 0 2 0v-2a1 1 0 0 0-1-1zm5 0a1 1 0 0 0-1 1v2a1 1 0 1 0 2 0v-2a1 1 0 0 0-1-1zm5 0a1 1 0 0 0-1 1v2a1 1 0 1 0 2 0v-2a1 1 0 0 0-1-1zm5 0a1 1 0 0 0-1 1v2a1 1 0 1 0 2 0v-2a1 1 0 0 0-1-1zm5 0a1 1 0 0 0-1 1v2a1 1 0 1 0 2 0v-2a1 1 0 0 0-1-1zm5 0a1 1 0 0 0-1 1v2a1 1 0 1 0 2 0v-2a1 1 0 0 0-1-1zm5 0a1 1 0 0 0-1 1v2a1 1 0 1 0 2 0v-2a1 1 0 0 0-1-1z"/></svg><svg viewBox="0 0 24 24" id="cancel" xmlns="http://www.w3.org/2000/svg"><path d="M12 2C6.47 2 2 6.47 2 12s4.47 10 10 10 10-4.47 10-10S17.53 2 12 2zm5 13.59L15.59 17 12 13.41 8.41 17 7 15.59 10.59 12 7 8.41 8.41 7 12 10.59 15.59 7 17 8.41 13.41 12 17 15.59z"/><path d="M0 0h24v24H0z" fill="none"/></svg><svg viewBox="0 0 24 24" id="check" xmlns="http://www.w3.org/2000/svg"><path fill="none" d="M0 0h24v24H0V0z"/><path d="M9 16.17L4.83 12l-1.42 1.41L9 19 21 7l-1.41-1.41L9 16.17z"/></svg><svg viewBox="0 0 24 24" id="check-circle" xmlns="http://www.w3.org/2000/svg"><path fill="none" d="M0 0h24v24H0V0z"/><path d="M12 2C6.48 2 2 6.48 2 12s4.48 10 10 10 10-4.48 10-10S17.52 2 12 2zm0 18c-4.41 0-8-3.59-8-8s3.59-8 8-8 8 3.59 8 8-3.59 8-8 8zm4.59-12.42L10 14.17l-2.59-2.58L6 13l4 4 8-8z"/></svg><svg viewBox="0 0 24 24" id="chevron-left" xmlns="http://www.w3.org/2000/svg"><path d="M0 0h24v24H0z" fill="none"/><path d="M15.41 7.41L14 6l-6 6 6 6 1.41-1.41L10.83 12z"/></svg><svg viewBox="0 0 24 24" id="chevron-right" xmlns="http://www.w3.org/2000/svg"><path d="M0 0h24v24H0z" fill="none"/><path d="M10 6L8.59 7.41 13.17 12l-4.58 4.59L10 18l6-6z"/></svg><svg viewBox="0 0 24 24" id="close" xmlns="http://www.w3.org/2000/svg"><path fill="none" d="M0 0h24v24H0V0z"/><path d="M19 6.41L17.59 5 12 10.59 6.41 5 5 6.41 10.59 12 5 17.59 6.41 19 12 13.41 17.59 19 19 17.59 13.41 12 19 6.41z"/></svg><svg viewBox="0 0 24 24" id="cloud-upload" xmlns="http://www.w3.org/2000/svg"><path fill="none" d="M0 0h24v24H0V0z"/><path d="M19.35 10.04A7.49 7.49 0 0 0 12 4C9.11 4 6.6 5.64 5.35 8.04A5.994 5.994 0 0 0 0 14c0 3.31 2.69 6 6 6h13c2.76 0 5-2.24 5-5 0-2.64-2.05-4.78-4.65-4.96zM19 18H6c-2.21 0-4-1.79-4-4 0-2.05 1.53-3.76 3.56-3.97l1.07-.11.5-.95A5.469 5.469 0 0 1 12 6c2.62 0 4.88 1.86 5.39 4.43l.3 1.5 1.53.11A2.98 2.98 0 0 1 22 15c0 1.65-1.35 3-3 3zM8 13h2.55v3h2.9v-3H16l-4-4z"/></svg><svg viewBox="0 0 24 24" id="code" xmlns="http://www.w3.org/2000/svg"><path fill="none" d="M0 0h24v24H0V0z"/><path d="M9.4 16.6L4.8 12l4.6-4.6L8 6l-6 6 6 6 1.4-1.4zm5.2 0l4.6-4.6-4.6-4.6L16 6l6 6-6 6-1.4-1.4z"/></svg><svg viewBox="0 0 24 24" id="create-new-folder" xmlns="http://www.w3.org/2000/svg"><path fill="none" d="M0 0h24v24H0V0z"/><path d="M20 6h-8l-2-2H4c-1.11 0-1.99.89-1.99 2L2 18c0 1.11.89 2 2 2h16c1.11 0 2-.89 2-2V8c0-1.11-.89-2-2-2zm-1 8h-3v3h-2v-3h-3v-2h3V9h2v3h3v2z"/></svg><svg viewBox="0 0 24 24" id="credit-card" xmlns="http://www.w3.org/2000/svg"><path fill="none" d="M0 0h24v24H0V0z"/><path d="M20 4H4c-1.11 0-1.99.89-1.99 2L2 18c0 1.11.89 2 2 2h16c1.11 0 2-.89 2-2V6c0-1.11-.89-2-2-2zm0 14H4v-6h16v6zm0-10H4V6h16v2z"/></svg><svg viewBox="0 0 24 24" id="dashboard" xmlns="http://www.w3.org/2000/svg"><path fill="none" d="M0 0h24v24H0V0z"/><path d="M19 5v2h-4V5h4M9 5v6H5V5h4m10 8v6h-4v-6h4M9 17v2H5v-2h4M21 3h-8v6h8V3zM11 3H3v10h8V3zm10 8h-8v10h8V11zm-10 4H3v6h8v-6z"/></svg><svg viewBox="0 0 64 64" id="default-file-custom" xmlns="http://www.w3.org/2000/svg"><path d="M23.656 4c-1.336 0-2.59.52-3.535 1.465l-8.656 8.656A4.964 4.964 0 0 0 10 17.656V57c0 1.652 1.348 3 3 3h40c1.652 0 3-1.348 3-3V7c0-1.652-1.348-3-3-3zM24 6h29c.55 0 1 .45 1 1v50c0 .55-.45 1-1 1H13c-.55 0-1-.45-1-1V18h9c1.652 0 3-1.348 3-3zm-2 .5V15c0 .55-.45 1-1 1h-8.5a2.82 2.82 0 0 1 .379-.465l8.656-8.656c.145-.14.3-.266.465-.379zM21 22c-.55 0-1 .45-1 1s.45 1 1 1h16c.55 0 1-.45 1-1s-.45-1-1-1zm20 0c-.55 0-1 .45-1 1s.45 1 1 1h4c.55 0 1-.45 1-1s-.45-1-1-1zm-20 4c-.55 0-1 .45-1 1s.45 1 1 1h20c.55 0 1-.45 1-1s-.45-1-1-1zm0 6c-.55 0-1 .45-1 1s.45 1 1 1h22c.55 0 1-.45 1-1s-.45-1-1-1zm0 4c-.55 0-1 .45-1 1s.45 1 1 1h12c.55 0 1-.45 1-1s-.45-1-1-1zm-6 14c-.55 0-1 .45-1 1v2c0 .55.45 1 1 1s1-.45 1-1v-2c0-.55-.45-1-1-1zm5 0c-.55 0-1 .45-1 1v2c0 .55.45 1 1 1s1-.45 1-1v-2c0-.55-.45-1-1-1zm5 0c-.55 0-1 .45-1 1v2c0 .55.45 1 1 1s1-.45 1-1v-2c0-.55-.45-1-1-1zm5 0c-.55 0-1 .45-1 1v2c0 .55.45 1 1 1s1-.45 1-1v-2c0-.55-.45-1-1-1zm5 0c-.55 0-1 .45-1 1v2c0 .55.45 1 1 1s1-.45 1-1v-2c0-.55-.45-1-1-1zm5 0c-.55 0-1 .45-1 1v2c0 .55.45 1 1 1s1-.45 1-1v-2c0-.55-.45-1-1-1zm5 0c-.55 0-1 .45-1 1v2c0 .55.45 1 1 1s1-.45 1-1v-2c0-.55-.45-1-1-1zm5 0c-.55 0-1 .45-1 1v2c0 .55.45 1 1 1s1-.45 1-1v-2c0-.55-.45-1-1-1z"/></svg><svg viewBox="0 0 24 24" id="delete" xmlns="http://www.w3.org/2000/svg"><path fill="none" d="M0 0h24v24H0V0z"/><path d="M16 9v10H8V9h8m-1.5-6h-5l-1 1H5v2h14V4h-3.5l-1-1zM18 7H6v12c0 1.1.9 2 2 2h8c1.1 0 2-.9 2-2V7z"/></svg><svg viewBox="0 0 24 24" id="delete-forever" xmlns="http://www.w3.org/2000/svg"><path fill="none" d="M0 0h24v24H0V0z"/><path d="M14.12 10.47L12 12.59l-2.13-2.12-1.41 1.41L10.59 14l-2.12 2.12 1.41 1.41L12 15.41l2.12 2.12 1.41-1.41L13.41 14l2.12-2.12zM15.5 4l-1-1h-5l-1 1H5v2h14V4zM6 19c0 1.1.9 2 2 2h8c1.1 0 2-.9 2-2V7H6v12zM8 9h8v10H8V9z"/></svg><svg viewBox="0 0 24 24" id="drag-handle" xmlns="http://www.w3.org/2000/svg"><path fill="none" d="M0 0h24v24H0z"/><path d="M20 9H4v2h16V9zM4 15h16v-2H4v2z"/></svg><svg viewBox="0 0 48 48" id="drop-custom" xmlns="http://www.w3.org/2000/svg"><path stroke="#E0E0E0" d="M24 44c-7.168 0-13-5.816-13-12.971C11 24 24 4 24 4s13 20 13 27.029C37 38.184 31.168 44 24 44z"/></svg><svg viewBox="0 0 48 48" id="drop-custom" xmlns="http://www.w3.org/2000/svg"><path stroke="#E0E0E0" d="M24 44c-7.168 0-13-5.816-13-12.971C11 24 24 4 24 4s13 20 13 27.029C37 38.184 31.168 44 24 44z"/></svg><svg viewBox="0 0 24 24" id="edit" xmlns="http://www.w3.org/2000/svg"><path fill="none" d="M0 0h24v24H0V0z"/><path d="M14.06 9.02l.92.92L5.92 19H5v-.92l9.06-9.06M17.66 3c-.25 0-.51.1-.7.29l-1.83 1.83 3.75 3.75 1.83-1.83a.996.996 0 0 0 0-1.41l-2.34-2.34c-.2-.2-.45-.29-.71-.29zm-3.6 3.19L3 17.25V21h3.75L17.81 9.94l-3.75-3.75z"/></svg><svg viewBox="0 0 24 24" id="error" xmlns="http://www.w3.org/2000/svg"><path d="M12 2C6.48 2 2 6.48 2 12s4.48 10 10 10 10-4.48 10-10S17.52 2 12 2zm1 15h-2v-2h2v2zm0-4h-2V7h2v6z"/></svg><svg viewBox="0 0 24 24" id="exit-to-app" xmlns="http://www.w3.org/2000/svg"><path fill="none" d="M0 0h24v24H0V0z"/><path d="M10.09 15.59L11.5 17l5-5-5-5-1.41 1.41L12.67 11H3v2h9.67l-2.58 2.59zM19 3H5a2 2 0 0 0-2 2v4h2V5h14v14H5v-4H3v4a2 2 0 0 0 2 2h14c1.1 0 2-.9 2-2V5c0-1.1-.9-2-2-2z"/></svg><svg viewBox="0 0 24 24" id="facebook" xmlns="http://www.w3.org/2000/svg"><path d="M17.525 9H14V7c0-1.032.084-1.682 1.563-1.682h1.868v-3.18A26.065 26.065 0 0 0 14.693 2C11.98 2 10 3.657 10 6.699V9H7v4l3-.001V22h4v-9.003l3.066-.001L17.525 9z"/></svg><svg viewBox="0 0 24 24" id="file" xmlns="http://www.w3.org/2000/svg"><path d="M6 2c-1.094 0-2 .906-2 2v16c0 1.094.906 2 2 2h12c1.094 0 2-.906 2-2V8l-6-6H6zm0 2h7v5h5v11H6V4zm2 8v2h8v-2H8zm0 4v2h8v-2H8z"/></svg><svg viewBox="0 0 24 24" id="file-copy" xmlns="http://www.w3.org/2000/svg"><path fill="none" d="M0 0h24v24H0V0z"/><path d="M16 1H4c-1.1 0-2 .9-2 2v14h2V3h12V1zm-1 4H8c-1.1 0-1.99.9-1.99 2L6 21c0 1.1.89 2 1.99 2H19c1.1 0 2-.9 2-2V11l-6-6zM8 21V7h6v5h5v9H8z"/></svg><svg viewBox="0 0 24 24" id="file-download" xmlns="http://www.w3.org/2000/svg"><path fill="none" d="M0 0h24v24H0V0z"/><path d="M19 12v7H5v-7H3v7c0 1.1.9 2 2 2h14c1.1 0 2-.9 2-2v-7h-2zm-6 .67l2.59-2.58L17 11.5l-5 5-5-5 1.41-1.41L11 12.67V3h2v9.67z"/></svg><svg viewBox="0 0 24 24" id="filter-list" xmlns="http://www.w3.org/2000/svg"><path fill="none" d="M0 0h24v24H0V0z"/><path d="M10 18h4v-2h-4v2zM3 6v2h18V6H3zm3 7h12v-2H6v2z"/></svg><svg viewBox="0 0 24 24" id="folder" xmlns="http://www.w3.org/2000/svg"><path fill="none" d="M0 0h24v24H0V0z"/><path d="M9.17 6l2 2H20v10H4V6h5.17M10 4H4c-1.1 0-1.99.9-1.99 2L2 18c0 1.1.9 2 2 2h16c1.1 0 2-.9 2-2V8c0-1.1-.9-2-2-2h-8l-2-2z"/></svg><svg viewBox="0 0 64 64" id="folder-file-custom" xmlns="http://www.w3.org/2000/svg"><path d="M5 10c-1.7 0-3 1.3-3 3v39c0 2.2 1.8 4 4 4h54c2.2 0 4-1.8 4-4V23c0-1.7-1.3-3-3-3h-3v-1c0-1.7-1.3-3-3-3H29.7c-.802 0-1.5-.3-2.102-.902l-3.696-3.696C23 10.5 21.7 10 20.402 10zm0 2h15.402c.797 0 1.496.3 2.098.902l3.7 3.696C27.097 17.5 28.397 18 29.7 18H55c.602 0 1 .398 1 1v33c0 .602.2 1.3.598 2H6c-1.102 0-2-.898-2-2v-6h41c.602 0 1-.398 1-1s-.398-1-1-1H4V13c0-.602.398-1 1-1zm53 10h3c.602 0 1 .398 1 1v29c0 1.102-.898 2-2 2-1.2 0-2-1.398-2-2zm-47 2c-.602 0-1 .398-1 1s.398 1 1 1h10c.602 0 1-.398 1-1s-.398-1-1-1zm14 0c-.602 0-1 .398-1 1s.398 1 1 1h6c.602 0 1-.398 1-1s-.398-1-1-1zm-14 4c-.602 0-1 .398-1 1s.398 1 1 1h4c.602 0 1-.398 1-1s-.398-1-1-1zm8 0c-.602 0-1 .398-1 1s.398 1 1 1h7c.602 0 1-.398 1-1s-.398-1-1-1zm30 16c-.602 0-1 .398-1 1s.398 1 1 1h4c.602 0 1-.398 1-1s-.398-1-1-1zM7 48c-.602 0-1 .398-1 1v2c0 .602.398 1 1 1s1-.398 1-1v-2c0-.602-.398-1-1-1zm5 0c-.602 0-1 .398-1 1v2c0 .602.398 1 1 1s1-.398 1-1v-2c0-.602-.398-1-1-1zm5 0c-.602 0-1 .398-1 1v2c0 .602.398 1 1 1s1-.398 1-1v-2c0-.602-.398-1-1-1zm5 0c-.602 0-1 .398-1 1v2c0 .602.398 1 1 1s1-.398 1-1v-2c0-.602-.398-1-1-1zm5 0c-.602 0-1 .398-1 1v2c0 .602.398 1 1 1s1-.398 1-1v-2c0-.602-.398-1-1-1zm5 0c-.602 0-1 .398-1 1v2c0 .602.398 1 1 1s1-.398 1-1v-2c0-.602-.398-1-1-1zm5 0c-.602 0-1 .398-1 1v2c0 .602.398 1 1 1s1-.398 1-1v-2c0-.602-.398-1-1-1zm5 0c-.602 0-1 .398-1 1v2c0 .602.398 1 1 1s1-.398 1-1v-2c0-.602-.398-1-1-1zm5 0c-.602 0-1 .398-1 1v2c0 .602.398 1 1 1s1-.398 1-1v-2c0-.602-.398-1-1-1zm5 0c-.602 0-1 .398-1 1v2c0 .602.398 1 1 1s1-.398 1-1v-2c0-.602-.398-1-1-1z"/></svg><svg viewBox="0 0 24 24" id="format-align-center" xmlns="http://www.w3.org/2000/svg"><path fill="none" d="M0 0h24v24H0V0z"/><path d="M7 15v2h10v-2H7zm-4 6h18v-2H3v2zm0-8h18v-2H3v2zm4-6v2h10V7H7zM3 3v2h18V3H3z"/></svg><svg viewBox="0 0 24 24" id="format-align-left" xmlns="http://www.w3.org/2000/svg"><path fill="none" d="M0 0h24v24H0V0z"/><path d="M15 15H3v2h12v-2zm0-8H3v2h12V7zM3 13h18v-2H3v2zm0 8h18v-2H3v2zM3 3v2h18V3H3z"/></svg><svg viewBox="0 0 24 24" id="format-align-right" xmlns="http://www.w3.org/2000/svg"><path fill="none" d="M0 0h24v24H0V0z"/><path d="M3 21h18v-2H3v2zm6-4h12v-2H9v2zm-6-4h18v-2H3v2zm6-4h12V7H9v2zM3 3v2h18V3H3z"/></svg><svg viewBox="0 0 24 24" id="format-bold" xmlns="http://www.w3.org/2000/svg"><path fill="none" d="M0 0h24v24H0V0z"/><path d="M15.6 10.79c.97-.67 1.65-1.77 1.65-2.79 0-2.26-1.75-4-4-4H7v14h7.04c2.09 0 3.71-1.7 3.71-3.79 0-1.52-.86-2.82-2.15-3.42zM10 6.5h3c.83 0 1.5.67 1.5 1.5s-.67 1.5-1.5 1.5h-3v-3zm3.5 9H10v-3h3.5c.83 0 1.5.67 1.5 1.5s-.67 1.5-1.5 1.5z"/></svg><svg viewBox="0 0 24 24" id="format-clear" xmlns="http://www.w3.org/2000/svg"><path fill="none" d="M0 0h24v24H0V0z"/><path d="M20 8V5H6.39l3 3h1.83l-.55 1.28 2.09 2.1L14.21 8zM3.41 4.86L2 6.27l6.97 6.97L6.5 19h3l1.57-3.66L16.73 21l1.41-1.41z"/></svg><svg viewBox="0 0 24 24" id="format-color-fill" xmlns="http://www.w3.org/2000/svg"><path fill="none" d="M0 0h24v24H0V0z"/><path d="M16.56 8.94L7.62 0 6.21 1.41l2.38 2.38-5.15 5.15a1.49 1.49 0 0 0 0 2.12l5.5 5.5c.29.29.68.44 1.06.44s.77-.15 1.06-.44l5.5-5.5c.59-.58.59-1.53 0-2.12zM5.21 10L10 5.21 14.79 10H5.21zM19 11.5s-2 2.17-2 3.5c0 1.1.9 2 2 2s2-.9 2-2c0-1.33-2-3.5-2-3.5z"/><path fill-opacity=".36" d="M0 20h24v4H0v-4z"/></svg><svg viewBox="0 0 24 24" id="format-color-text" xmlns="http://www.w3.org/2000/svg"><path fill="none" d="M0 0h24v24H0V0z"/><path fill-opacity=".36" d="M0 20h24v4H0v-4z"/><path d="M11 3L5.5 17h2.25l1.12-3h6.25l1.12 3h2.25L13 3h-2zm-1.38 9L12 5.67 14.38 12H9.62z"/></svg><svg viewBox="0 0 24 24" id="format-indent-decrease" xmlns="http://www.w3.org/2000/svg"><path d="M0 0h24v24H0V0z" fill="none"/><path d="M11 17h10v-2H11v2zm-8-5l4 4V8l-4 4zm0 9h18v-2H3v2zM3 3v2h18V3H3zm8 6h10V7H11v2zm0 4h10v-2H11v2z"/></svg><svg viewBox="0 0 24 24" id="format-indent-increase" xmlns="http://www.w3.org/2000/svg"><path d="M0 0h24v24H0V0z" fill="none"/><path d="M3 21h18v-2H3v2zM3 8v8l4-4-4-4zm8 9h10v-2H11v2zM3 3v2h18V3H3zm8 6h10V7H11v2zm0 4h10v-2H11v2z"/></svg><svg viewBox="0 0 24 24" id="format-italic" xmlns="http://www.w3.org/2000/svg"><path fill="none" d="M0 0h24v24H0V0z"/><path d="M10 4v3h2.21l-3.42 8H6v3h8v-3h-2.21l3.42-8H18V4h-8z"/></svg><svg viewBox="0 0 24 24" id="format-list-bulleted" xmlns="http://www.w3.org/2000/svg"><path fill="none" d="M0 0h24v24H0V0z"/><path d="M4 10.5c-.83 0-1.5.67-1.5 1.5s.67 1.5 1.5 1.5 1.5-.67 1.5-1.5-.67-1.5-1.5-1.5zm0-6c-.83 0-1.5.67-1.5 1.5S3.17 7.5 4 7.5 5.5 6.83 5.5 6 4.83 4.5 4 4.5zm0 12c-.83 0-1.5.68-1.5 1.5s.68 1.5 1.5 1.5 1.5-.68 1.5-1.5-.67-1.5-1.5-1.5zM7 19h14v-2H7v2zm0-6h14v-2H7v2zm0-8v2h14V5H7z"/></svg><svg viewBox="0 0 24 24" id="format-list-numbered" xmlns="http://www.w3.org/2000/svg"><path fill="none" d="M0 0h24v24H0V0z"/><path d="M2 17h2v.5H3v1h1v.5H2v1h3v-4H2v1zm1-9h1V4H2v1h1v3zm-1 3h1.8L2 13.1v.9h3v-1H3.2L5 10.9V10H2v1zm5-6v2h14V5H7zm0 14h14v-2H7v2zm0-6h14v-2H7v2z"/></svg><svg viewBox="0 0 24 24" id="format-underlined" xmlns="http://www.w3.org/2000/svg"><path fill="none" d="M0 0h24v24H0V0z"/><path d="M12 17c3.31 0 6-2.69 6-6V3h-2.5v8c0 1.93-1.57 3.5-3.5 3.5S8.5 12.93 8.5 11V3H6v8c0 3.31 2.69 6 6 6zm-7 2v2h14v-2H5z"/></svg><svg viewBox="0 0 24 24" id="google" xmlns="http://www.w3.org/2000/svg"><path d="M12.545 10.239v3.821h5.445c-.712 2.315-2.647 3.972-5.445 3.972a6.033 6.033 0 1 1 0-12.064c1.498 0 2.866.549 3.921 1.453l2.814-2.814A9.969 9.969 0 0 0 12.545 2C7.021 2 2.543 6.477 2.543 12s4.478 10 10.002 10c8.396 0 10.249-7.85 9.426-11.748l-9.426-.013z"/></svg><svg viewBox="0 0 24 24" id="group-add" xmlns="http://www.w3.org/2000/svg"><path d="M0 0h24v24H0V0z" fill="none"/><path d="M5 15v-3h3v-2H5V7H3v3H0v2h3v3zm7-1.25c-2.34 0-7 1.17-7 3.5V19h14v-1.75c0-2.33-4.66-3.5-7-3.5zM7.34 17c.84-.58 2.87-1.25 4.66-1.25s3.82.67 4.66 1.25H7.34zM12 12c1.93 0 3.5-1.57 3.5-3.5S13.93 5 12 5 8.5 6.57 8.5 8.5 10.07 12 12 12zm0-5c.83 0 1.5.67 1.5 1.5S12.83 10 12 10s-1.5-.67-1.5-1.5S11.17 7 12 7zm5 5c1.93 0 3.5-1.57 3.5-3.5S18.93 5 17 5c-.24 0-.48.02-.71.07a5.416 5.416 0 0 1-.02 6.85c.24.05.48.08.73.08zm2.32 2.02c1 .81 1.68 1.87 1.68 3.23V19h3v-1.75c0-1.69-2.44-2.76-4.68-3.23z"/></svg><svg viewBox="0 0 24 24" id="groups" xmlns="http://www.w3.org/2000/svg"><path fill="none" d="M0 0h24v24H0z"/><path d="M12 12.75c1.63 0 3.07.39 4.24.9 1.08.48 1.76 1.56 1.76 2.73V18H6v-1.61c0-1.18.68-2.26 1.76-2.73 1.17-.52 2.61-.91 4.24-.91zM4 13c1.1 0 2-.9 2-2s-.9-2-2-2-2 .9-2 2 .9 2 2 2zm1.13 1.1c-.37-.06-.74-.1-1.13-.1-.99 0-1.93.21-2.78.58A2.01 2.01 0 0 0 0 16.43V18h4.5v-1.61c0-.83.23-1.61.63-2.29zM20 13c1.1 0 2-.9 2-2s-.9-2-2-2-2 .9-2 2 .9 2 2 2zm4 3.43c0-.81-.48-1.53-1.22-1.85A6.95 6.95 0 0 0 20 14c-.39 0-.76.04-1.13.1.4.68.63 1.46.63 2.29V18H24v-1.57zM12 6c1.66 0 3 1.34 3 3s-1.34 3-3 3-3-1.34-3-3 1.34-3 3-3z"/></svg><svg viewBox="0 0 24 24" id="image" xmlns="http://www.w3.org/2000/svg"><path fill="none" d="M0 0h24v24H0V0z"/><path d="M19 5v14H5V5h14m0-2H5c-1.1 0-2 .9-2 2v14c0 1.1.9 2 2 2h14c1.1 0 2-.9 2-2V5c0-1.1-.9-2-2-2zm-4.86 8.86l-3 3.87L9 13.14 6 17h12l-3.86-5.14z"/></svg><svg viewBox="0 0 64 64" id="image-file-custom" xmlns="http://www.w3.org/2000/svg"><path d="M21.656 4c-1.336 0-2.59.52-3.535 1.465L9.465 14.12A4.964 4.964 0 0 0 8 17.656V57c0 1.652 1.348 3 3 3h40c1.652 0 3-1.348 3-3V7c0-1.652-1.348-3-3-3zM22 6h29c.55 0 1 .45 1 1v50c0 .55-.45 1-1 1H11c-.55 0-1-.45-1-1V18h9c1.652 0 3-1.348 3-3zm-2 .5V15c0 .55-.45 1-1 1h-8.5a2.82 2.82 0 0 1 .379-.465l8.656-8.656c.145-.14.3-.266.465-.379zM20 24c-2.207 0-4 1.793-4 4s1.793 4 4 4 4-1.793 4-4-1.793-4-4-4zm0 1.75a2.25 2.25 0 1 1-.001 4.501A2.25 2.25 0 0 1 20 25.75zm17 4.664c-.512 0-1.023.195-1.414.586L29 37.586 26.414 35a2 2 0 0 0-2.828 0l-9 9h-1.543c-.625 0-1.043.398-1.043 1s.523 1 1.043 1H48.98c.52 0 1.043-.398 1.043-1s-.523-1-1.043-1H25.414L37 32.414l8.293 8.293a1 1 0 1 0 1.414-1.414L38.414 31A1.994 1.994 0 0 0 37 30.414zm-12 6L27.586 39l-5 5h-5.172zM13 52c-.55 0-1 .45-1 1v2c0 .55.45 1 1 1s1-.45 1-1v-2c0-.55-.45-1-1-1zm5 0c-.55 0-1 .45-1 1v2c0 .55.45 1 1 1s1-.45 1-1v-2c0-.55-.45-1-1-1zm5 0c-.55 0-1 .45-1 1v2c0 .55.45 1 1 1s1-.45 1-1v-2c0-.55-.45-1-1-1zm5 0c-.55 0-1 .45-1 1v2c0 .55.45 1 1 1s1-.45 1-1v-2c0-.55-.45-1-1-1zm5 0c-.55 0-1 .45-1 1v2c0 .55.45 1 1 1s1-.45 1-1v-2c0-.55-.45-1-1-1zm5 0c-.55 0-1 .45-1 1v2c0 .55.45 1 1 1s1-.45 1-1v-2c0-.55-.45-1-1-1zm5 0c-.55 0-1 .45-1 1v2c0 .55.45 1 1 1s1-.45 1-1v-2c0-.55-.45-1-1-1zm5 0c-.55 0-1 .45-1 1v2c0 .55.45 1 1 1s1-.45 1-1v-2c0-.55-.45-1-1-1z"/></svg><svg viewBox="0 0 24 24" id="info" xmlns="http://www.w3.org/2000/svg"><path fill="none" d="M0 0h24v24H0V0z"/><path d="M11 7h2v2h-2zm0 4h2v6h-2zm1-9C6.48 2 2 6.48 2 12s4.48 10 10 10 10-4.48 10-10S17.52 2 12 2zm0 18c-4.41 0-8-3.59-8-8s3.59-8 8-8 8 3.59 8 8-3.59 8-8 8z"/></svg><svg viewBox="0 0 24 24" id="keyboard-arrow-down" xmlns="http://www.w3.org/2000/svg"><path fill="none" d="M0 0h24v24H0V0z"/><path d="M7.41 8.59L12 13.17l4.59-4.58L18 10l-6 6-6-6 1.41-1.41z"/></svg><svg viewBox="0 0 24 24" id="keyboard-arrow-left" xmlns="http://www.w3.org/2000/svg"><path fill="none" d="M0 0h24v24H0V0z"/><path d="M15.41 16.59L10.83 12l4.58-4.59L14 6l-6 6 6 6 1.41-1.41z"/></svg><svg viewBox="0 0 24 24" id="keyboard-arrow-right" xmlns="http://www.w3.org/2000/svg"><path fill="none" d="M0 0h24v24H0V0z"/><path d="M8.59 16.59L13.17 12 8.59 7.41 10 6l6 6-6 6-1.41-1.41z"/></svg><svg viewBox="0 0 24 24" id="keyboard-arrow-up" xmlns="http://www.w3.org/2000/svg"><path fill="none" d="M0 0h24v24H0V0z"/><path d="M7.41 15.41L12 10.83l4.59 4.58L18 14l-6-6-6 6 1.41 1.41z"/></svg><svg viewBox="0 0 24 24" id="light" xmlns="http://www.w3.org/2000/svg"><path style="line-height:normal;text-indent:0;text-align:start;text-decoration-line:none;text-decoration-style:solid;text-decoration-color:#000;text-transform:none;block-progression:tb;isolation:auto;mix-blend-mode:normal" d="M12 2c-2.117 0-4.092.578-5.576 1.77C4.94 4.96 4 6.797 4 9c0 1.778.881 3.493 1.95 5.021A20.312 20.312 0 0 0 9 17.443V20c0 1.093.907 2 2 2h2c1.093 0 2-.907 2-2v-2.557a20.312 20.312 0 0 0 3.05-3.422C19.12 12.493 20 10.778 20 9c0-2.203-.94-4.04-2.424-5.23C16.092 2.578 14.117 2 12 2zm0 2c1.749 0 3.275.488 4.324 1.33C17.374 6.172 18 7.337 18 9c0 1.062-.644 2.524-1.588 3.875-.878 1.256-1.964 2.355-2.842 3.125h-3.14c-.878-.77-1.964-1.87-2.842-3.125C6.644 11.525 6 10.062 6 9c0-1.663.626-2.828 1.676-3.67C8.726 4.488 10.25 4 12 4zm-1 14h2v2h-2v-2z"/></svg><svg viewBox="0 0 24 24" id="light-on" xmlns="http://www.w3.org/2000/svg"><path d="M12 0a1 1 0 0 0-1 1 1 1 0 0 0 1 1 1 1 0 0 0 1-1 1 1 0 0 0-1-1zM4.223 3.223a1 1 0 0 0-1 1 1 1 0 0 0 1 1 1 1 0 0 0 1-1 1 1 0 0 0-1-1zm15.554 0a1 1 0 0 0-1 1 1 1 0 0 0 1 1 1 1 0 0 0 1-1 1 1 0 0 0-1-1zM12 5c-3.859 0-7 3.141-7 7a7.008 7.008 0 0 0 4 6.318V21c0 1.103.897 2 2 2h2c1.103 0 2-.897 2-2v-2.682A7.008 7.008 0 0 0 19 12c0-3.859-3.141-7-7-7zm0 2c2.757 0 5 2.243 5 5 0 2.11-1.34 4.003-3.334 4.709l-.666.234V21h-2v-4.057l-.666-.234A5.008 5.008 0 0 1 7 12c0-2.757 2.243-5 5-5zM1 11a1 1 0 0 0-1 1 1 1 0 0 0 1 1 1 1 0 0 0 1-1 1 1 0 0 0-1-1zm22 0a1 1 0 0 0-1 1 1 1 0 0 0 1 1 1 1 0 0 0 1-1 1 1 0 0 0-1-1zM4.223 18.777a1 1 0 0 0-1 1 1 1 0 0 0 1 1 1 1 0 0 0 1-1 1 1 0 0 0-1-1zm15.554 0a1 1 0 0 0-1 1 1 1 0 0 0 1 1 1 1 0 0 0 1-1 1 1 0 0 0-1-1z"/></svg><svg viewBox="0 0 24 24" id="link" xmlns="http://www.w3.org/2000/svg"><path fill="none" d="M0 0h24v24H0V0z"/><path d="M17 7h-4v2h4c1.65 0 3 1.35 3 3s-1.35 3-3 3h-4v2h4c2.76 0 5-2.24 5-5s-2.24-5-5-5zm-6 8H7c-1.65 0-3-1.35-3-3s1.35-3 3-3h4V7H7c-2.76 0-5 2.24-5 5s2.24 5 5 5h4v-2zm-3-4h8v2H8z"/></svg><svg viewBox="0 0 24 24" id="local-offer" xmlns="http://www.w3.org/2000/svg"><path fill="none" d="M0 0h24v24H0V0z"/><path d="M21.41 11.58l-9-9C12.05 2.22 11.55 2 11 2H4c-1.1 0-2 .9-2 2v7c0 .55.22 1.05.59 1.42l9 9c.36.36.86.58 1.41.58s1.05-.22 1.41-.59l7-7c.37-.36.59-.86.59-1.41s-.23-1.06-.59-1.42zM13 20.01L4 11V4h7v-.01l9 9-7 7.02z"/><circle cx="6.5" cy="6.5" r="1.5"/></svg><svg viewBox="0 0 24 24" id="mail" xmlns="http://www.w3.org/2000/svg"><path fill="none" d="M0 0h24v24H0V0z"/><path d="M22 6c0-1.1-.9-2-2-2H4c-1.1 0-2 .9-2 2v12c0 1.1.9 2 2 2h16c1.1 0 2-.9 2-2V6zm-2 0l-8 4.99L4 6h16zm0 12H4V8l8 5 8-5v10z"/></svg><svg viewBox="0 0 24 24" id="menu" xmlns="http://www.w3.org/2000/svg"><path fill="none" d="M0 0h24v24H0V0z"/><path d="M3 18h18v-2H3v2zm0-5h18v-2H3v2zm0-7v2h18V6H3z"/></svg><svg viewBox="0 0 24 24" id="more-vert" xmlns="http://www.w3.org/2000/svg"><path fill="none" d="M0 0h24v24H0V0z"/><path d="M12 8c1.1 0 2-.9 2-2s-.9-2-2-2-2 .9-2 2 .9 2 2 2zm0 2c-1.1 0-2 .9-2 2s.9 2 2 2 2-.9 2-2-.9-2-2-2zm0 6c-1.1 0-2 .9-2 2s.9 2 2 2 2-.9 2-2-.9-2-2-2z"/></svg><svg viewBox="0 0 24 24" id="network-drive-custom" xmlns="http://www.w3.org/2000/svg"><path d="M12 2c-1.594 0-2.902.863-3.813 2.031C8.121 4.027 8.075 4 8 4 5.8 4 4 5.8 4 8s1.8 4 4 4h9c1.645 0 3-1.355 3-3s-1.355-3-3-3h-.219c-.48-2.258-2.386-4-4.781-4zm0 2c1.668 0 3 1.332 3 3v1h2c.566 0 1 .434 1 1 0 .566-.434 1-1 1H8c-1.117 0-2-.883-2-2a1.984 1.984 0 0 1 2.344-1.969l.719.125.343-.625A2.947 2.947 0 0 1 12 4zM4 14a2 2 0 0 0-2 2v4a2 2 0 0 0 2 2h16a2 2 0 0 0 2-2v-4a2 2 0 0 0-2-2zm2 3c.55 0 1 .45 1 1s-.45 1-1 1-1-.45-1-1 .45-1 1-1zm3 0h10v2H9z"/></svg><svg viewBox="0 0 24 24" id="note" xmlns="http://www.w3.org/2000/svg"><path fill="none" d="M0 0h24v24H0V0z"/><path d="M16 4H4c-1.1 0-2 .9-2 2v12.01c0 1.1.9 1.99 2 1.99h16c1.1 0 2-.9 2-2v-8l-6-6zM4 18.01V6h11v5h5v7.01H4z"/></svg><svg viewBox="0 0 24 24" id="notifications" xmlns="http://www.w3.org/2000/svg"><path fill="none" d="M0 0h24v24H0V0z"/><path d="M12 22c1.1 0 2-.9 2-2h-4c0 1.1.9 2 2 2zm6-6v-5c0-3.07-1.63-5.64-4.5-6.32V4c0-.83-.67-1.5-1.5-1.5s-1.5.67-1.5 1.5v.68C7.64 5.36 6 7.92 6 11v5l-2 2v1h16v-1l-2-2zm-2 1H8v-6c0-2.48 1.51-4.5 4-4.5s4 2.02 4 4.5v6z"/></svg><svg viewBox="0 0 24 24" id="page" xmlns="http://www.w3.org/2000/svg"><path d="M5 3c-1.093 0-2 .907-2 2v14c0 1.093.907 2 2 2h14c1.093 0 2-.907 2-2V5c0-1.093-.907-2-2-2H5zm0 2h14v4H5V5zm2 1a1 1 0 0 0-1 1 1 1 0 0 0 1 1 1 1 0 0 0 1-1 1 1 0 0 0-1-1zm3 0a1 1 0 0 0-1 1 1 1 0 0 0 1 1 1 1 0 0 0 1-1 1 1 0 0 0-1-1zm3 0v2h4V6h-4zm-8 5h3v8H5v-8zm5 0h9v8h-9v-8zm2 1v2h5v-2h-5zm0 3v2h5v-2h-5z"/></svg><svg viewBox="0 0 40 40" id="password" xmlns="http://www.w3.org/2000/svg"><path d="M27 17.398V9c0-3.867-3.133-7-7-7s-7 3.133-7 7v8.398" fill="none" stroke-width="2" stroke="#4788c7" stroke-miterlimit="10"/><path d="M20 38.5c-6.895 0-12.5-5.605-12.5-12.5S13.105 13.5 20 13.5 32.5 19.105 32.5 26 26.895 38.5 20 38.5z" fill="#98ccfd"/><path d="M20 14c6.617 0 12 5.383 12 12s-5.383 12-12 12S8 32.617 8 26s5.383-12 12-12m0-1c-7.18 0-13 5.82-13 13s5.82 13 13 13 13-5.82 13-13-5.82-13-13-13z" fill="#4788c7"/><path d="M28 26a8 8 0 1 1-16 0 8 8 0 0 1 16 0z" fill="#dff0fe"/><path d="M20 31c-.55 0-1-.45-1-1v-3c0-.55.45-1 1-1s1 .45 1 1v3c0 .55-.45 1-1 1z" fill="#4788c7"/></svg><svg viewBox="0 0 40 40" id="password-custom" xmlns="http://www.w3.org/2000/svg"><path d="M27 17.398V9c0-3.867-3.133-7-7-7s-7 3.133-7 7v8.398" fill="none" stroke-width="2" stroke="#4788c7" stroke-miterlimit="10"/><path d="M20 38.5c-6.895 0-12.5-5.605-12.5-12.5S13.105 13.5 20 13.5 32.5 19.105 32.5 26 26.895 38.5 20 38.5z" fill="#98ccfd"/><path d="M20 14c6.617 0 12 5.383 12 12s-5.383 12-12 12S8 32.617 8 26s5.383-12 12-12m0-1c-7.18 0-13 5.82-13 13s5.82 13 13 13 13-5.82 13-13-5.82-13-13-13z" fill="#4788c7"/><path d="M28 26a8 8 0 1 1-16 0 8 8 0 0 1 16 0z" fill="#dff0fe"/><path d="M20 31c-.55 0-1-.45-1-1v-3c0-.55.45-1 1-1s1 .45 1 1v3c0 .55-.45 1-1 1z" fill="#4788c7"/></svg><svg viewBox="0 0 24 24" id="pause" xmlns="http://www.w3.org/2000/svg"><path fill="none" d="M0 0h24v24H0V0z"/><path d="M6 19h4V5H6v14zm8-14v14h4V5h-4z"/></svg><svg viewBox="0 0 64 64" id="pdf-file-custom" xmlns="http://www.w3.org/2000/svg"><path d="M17.656 4c-1.336 0-2.59.52-3.535 1.465L5.465 14.12A4.964 4.964 0 0 0 4 17.656V57c0 1.652 1.348 3 3 3h40c1.652 0 3-1.348 3-3V46h8c1.102 0 2-.898 2-2V24c0-1.102-.898-2-2-2h-8V7c0-1.652-1.348-3-3-3zM18 6h29c.55 0 1 .45 1 1v15H16c-1.102 0-2 .898-2 2v20c0 1.102.898 2 2 2h32v11c0 .55-.45 1-1 1H7c-.55 0-1-.45-1-1V18h9c1.652 0 3-1.348 3-3zm-2 .5V15c0 .55-.45 1-1 1H6.5c.11-.164.234-.32.379-.465l8.656-8.656c.145-.145.3-.27.465-.379zM16 24h42v20H16zm9 4a1 1 0 0 0-1 1v10a1 1 0 1 0 2 0v-3h3c1.652 0 3-1.348 3-3v-2c0-1.652-1.348-3-3-3zm10 0a1 1 0 0 0-1 1v10a1 1 0 0 0 1 1h3c2.207 0 4-1.793 4-4v-4c0-2.207-1.793-4-4-4zm10 0a1 1 0 0 0-1 1v10a1 1 0 1 0 2 0v-3h3a1 1 0 1 0 0-2h-3v-4h4a1 1 0 1 0 0-2zm-19 2h3c.55 0 1 .45 1 1v2c0 .55-.45 1-1 1h-3zm10 0h2c1.102 0 2 .898 2 2v4c0 1.102-.898 2-2 2h-2zM9 52a1 1 0 0 0-1 1v2a1 1 0 1 0 2 0v-2a1 1 0 0 0-1-1zm5 0a1 1 0 0 0-1 1v2a1 1 0 1 0 2 0v-2a1 1 0 0 0-1-1zm5 0a1 1 0 0 0-1 1v2a1 1 0 1 0 2 0v-2a1 1 0 0 0-1-1zm5 0a1 1 0 0 0-1 1v2a1 1 0 1 0 2 0v-2a1 1 0 0 0-1-1zm5 0a1 1 0 0 0-1 1v2a1 1 0 1 0 2 0v-2a1 1 0 0 0-1-1zm5 0a1 1 0 0 0-1 1v2a1 1 0 1 0 2 0v-2a1 1 0 0 0-1-1zm5 0a1 1 0 0 0-1 1v2a1 1 0 1 0 2 0v-2a1 1 0 0 0-1-1zm5 0a1 1 0 0 0-1 1v2a1 1 0 1 0 2 0v-2a1 1 0 0 0-1-1z"/></svg><svg viewBox="0 0 24 24" id="people" xmlns="http://www.w3.org/2000/svg"><path fill="none" d="M0 0h24v24H0V0z"/><path d="M9 13.75c-2.34 0-7 1.17-7 3.5V19h14v-1.75c0-2.33-4.66-3.5-7-3.5zM4.34 17c.84-.58 2.87-1.25 4.66-1.25s3.82.67 4.66 1.25H4.34zM9 12c1.93 0 3.5-1.57 3.5-3.5S10.93 5 9 5 5.5 6.57 5.5 8.5 7.07 12 9 12zm0-5c.83 0 1.5.67 1.5 1.5S9.83 10 9 10s-1.5-.67-1.5-1.5S8.17 7 9 7zm7.04 6.81c1.16.84 1.96 1.96 1.96 3.44V19h4v-1.75c0-2.02-3.5-3.17-5.96-3.44zM15 12c1.93 0 3.5-1.57 3.5-3.5S16.93 5 15 5c-.54 0-1.04.13-1.5.35.63.89 1 1.98 1 3.15s-.37 2.26-1 3.15c.46.22.96.35 1.5.35z"/></svg><svg viewBox="0 0 24 24" id="person" xmlns="http://www.w3.org/2000/svg"><path fill="none" d="M0 0h24v24H0V0z"/><path d="M12 6c1.1 0 2 .9 2 2s-.9 2-2 2-2-.9-2-2 .9-2 2-2m0 10c2.7 0 5.8 1.29 6 2H6c.23-.72 3.31-2 6-2m0-12C9.79 4 8 5.79 8 8s1.79 4 4 4 4-1.79 4-4-1.79-4-4-4zm0 10c-2.67 0-8 1.34-8 4v2h16v-2c0-2.66-5.33-4-8-4z"/></svg><svg viewBox="0 0 24 24" id="person-add" xmlns="http://www.w3.org/2000/svg"><path fill="none" d="M0 0h24v24H0V0z"/><path d="M15 12c2.21 0 4-1.79 4-4s-1.79-4-4-4-4 1.79-4 4 1.79 4 4 4zm0-6c1.1 0 2 .9 2 2s-.9 2-2 2-2-.9-2-2 .9-2 2-2zm0 8c-2.67 0-8 1.34-8 4v2h16v-2c0-2.66-5.33-4-8-4zm-6 4c.22-.72 3.31-2 6-2 2.7 0 5.8 1.29 6 2H9zm-3-3v-3h3v-2H6V7H4v3H1v2h3v3z"/></svg><svg viewBox="0 0 24 24" id="photo-size-select-actual" xmlns="http://www.w3.org/2000/svg"><path fill="none" d="M0 0h24v24H0V0z"/><path d="M21 3H3C2 3 1 4 1 5v14c0 1.1.9 2 2 2h18c1 0 2-1 2-2V5c0-1-1-2-2-2zm0 15.92c-.02.03-.06.06-.08.08H3V5.08L3.08 5h17.83c.03.02.06.06.08.08v13.84zm-10-3.41L8.5 12.5 5 17h14l-4.5-6z"/></svg><svg viewBox="0 0 24 24" id="pie-chart" xmlns="http://www.w3.org/2000/svg"><path fill="none" d="M0 0h24v24H0V0z"/><path d="M12 2C6.48 2 2 6.48 2 12s4.48 10 10 10 10-4.48 10-10S17.52 2 12 2zm7.93 9H13V4.07c3.61.45 6.48 3.32 6.93 6.93zM4 12c0-4.07 3.06-7.44 7-7.93v15.86c-3.94-.49-7-3.86-7-7.93zm9 7.93V13h6.93A8.002 8.002 0 0 1 13 19.93z"/></svg><svg viewBox="0 0 64 64" id="power-point-file-custom" xmlns="http://www.w3.org/2000/svg"><path d="M35.137 2.387a3.09 3.09 0 0 0-.657.043L5.305 7.578A3.997 3.997 0 0 0 2 11.516v38.968a3.991 3.991 0 0 0 3.305 3.938L34.48 59.57c.172.032.348.043.52.043a2.98 2.98 0 0 0 1.926-.699 2.988 2.988 0 0 0 1.074-2.3V52h19c1.652 0 3-1.348 3-3V13c0-1.652-1.348-3-3-3H38V5.383c0-.887-.39-1.727-1.074-2.297a2.958 2.958 0 0 0-1.79-.7zm-.032 2.004a.979.979 0 0 1 .536.226.986.986 0 0 1 .359.766v51.23a.987.987 0 0 1-.36.77.988.988 0 0 1-.812.219L5.652 52.453A1.996 1.996 0 0 1 4 50.484V11.516c0-.973.695-1.801 1.652-1.97l29.172-5.148a.984.984 0 0 1 .281-.007zM38 12h19c.55 0 1 .45 1 1v36c0 .55-.45 1-1 1H38v-4.05h14.95c.55 0 1-.395 1-.95a1 1 0 0 0-1-1H50v-3a1 1 0 0 0-1-1h-3v-3a1 1 0 0 0-1-1h-4a1 1 0 0 0-1 1v2h-2v-6.531A9.012 9.012 0 0 0 43 34c4.96 0 9-4.035 9-9s-4.04-9-9-9a8.923 8.923 0 0 0-5 1.52zm4 6.078v6.754c0 .195.07.371.172.527a.999.999 0 0 0 .223.368l4.84 4.835A6.966 6.966 0 0 1 43 32a7.002 7.002 0 0 1-5-2.113v-9.782a6.93 6.93 0 0 1 4-2.027zm2 0c3.387.488 6 3.402 6 6.922a6.973 6.973 0 0 1-1.363 4.137L44 24.5zM15 20a1 1 0 0 0-1 1v20a1 1 0 1 0 2 0v-7h5c2.758 0 5-2.242 5-5v-4c0-2.758-2.242-5-5-5zm1 2h5c1.652 0 3 1.348 3 3v4c0 1.652-1.348 3-3 3h-5zm26 16h2v6h-2zm-4 3h2v3h-2zm8 1h2v2h-2z"/></svg><svg viewBox="0 0 24 24" id="question-answer" xmlns="http://www.w3.org/2000/svg"><path fill="none" d="M0 0h24v24H0V0z"/><path d="M15 4v7H5.17l-.59.59-.58.58V4h11m1-2H3c-.55 0-1 .45-1 1v14l4-4h10c.55 0 1-.45 1-1V3c0-.55-.45-1-1-1zm5 4h-2v9H6v2c0 .55.45 1 1 1h11l4 4V7c0-.55-.45-1-1-1z"/></svg><svg viewBox="0 0 40 40" id="recent-custom" xmlns="http://www.w3.org/2000/svg"><path d="M20 38.5C9.8 38.5 1.5 30.2 1.5 20S9.8 1.5 20 1.5 38.5 9.8 38.5 20 30.2 38.5 20 38.5zm0-34C11.453 4.5 4.5 11.453 4.5 20S11.453 35.5 20 35.5 35.5 28.547 35.5 20 28.547 4.5 20 4.5z" fill="#98ccfd"/><path d="M20 2c9.926 0 18 8.074 18 18s-8.074 18-18 18S2 29.926 2 20 10.074 2 20 2m0 34c8.82 0 16-7.18 16-16S28.82 4 20 4 4 11.18 4 20s7.18 16 16 16m0-35C9.508 1 1 9.508 1 20s8.508 19 19 19 19-8.508 19-19S30.492 1 20 1zm0 34c-8.285 0-15-6.715-15-15S11.715 5 20 5s15 6.715 15 15-6.715 15-15 15z" fill="#4788c7"/><path d="M1.688 15a18.824 18.824 0 0 1 2.18-5h4.976C11.59 6.937 15.563 5 20 5c8.285 0 15 6.715 15 15s-6.715 15-15 15S5 28.285 5 20c0-1.758.316-3.434.871-5z" fill="#fff"/><path d="M3.5 12.5V4.207l8.293 8.293z" fill="#98ccfd"/><path d="M4 5.414L10.586 12H4V5.414M3 3v10h10z" fill="#4788c7"/><path d="M9.504 6.625a16.942 16.942 0 0 0-2.621 2.563" fill="none" stroke-width="2" stroke="#98ccfd" stroke-miterlimit="10"/><path d="M27 10l-7 10 6 6" fill="none" stroke-width="2" stroke-linecap="round" stroke="#4788c7" stroke-miterlimit="10"/><path d="M21.5 20a1.5 1.5 0 1 1-3 0 1.5 1.5 0 0 1 3 0z" fill="#4788c7"/><path d="M21 7c0 .55-.45 1-1 1s-1-.45-1-1 .45-1 1-1 1 .45 1 1zm0 26c0 .55-.45 1-1 1s-1-.45-1-1 .45-1 1-1 1 .45 1 1zm13-13c0 .55-.45 1-1 1s-1-.45-1-1 .45-1 1-1 1 .45 1 1zM8 20c0 .55-.45 1-1 1s-1-.45-1-1 .45-1 1-1 1 .45 1 1z" fill="#b6dcfe"/></svg><svg viewBox="0 0 24 24" id="redo" xmlns="http://www.w3.org/2000/svg"><path fill="none" d="M0 0h24v24H0V0z"/><path d="M18.4 10.6C16.55 8.99 14.15 8 11.5 8c-4.65 0-8.58 3.03-9.96 7.22L3.9 16a8.002 8.002 0 0 1 7.6-5.5c1.95 0 3.73.72 5.12 1.88L13 16h9V7l-3.6 3.6z"/></svg><svg viewBox="0 0 24 24" id="remove" xmlns="http://www.w3.org/2000/svg"><path fill="none" d="M0 0h24v24H0V0z"/><path d="M19 13H5v-2h14v2z"/></svg><svg viewBox="0 0 24 24" id="remove-red-eye" xmlns="http://www.w3.org/2000/svg"><path fill="none" d="M0 0h24v24H0V0z"/><path d="M12 6.5a9.77 9.77 0 0 1 8.82 5.5c-1.65 3.37-5.02 5.5-8.82 5.5S4.83 15.37 3.18 12A9.77 9.77 0 0 1 12 6.5m0-2C7 4.5 2.73 7.61 1 12c1.73 4.39 6 7.5 11 7.5s9.27-3.11 11-7.5c-1.73-4.39-6-7.5-11-7.5zm0 5a2.5 2.5 0 0 1 0 5 2.5 2.5 0 0 1 0-5m0-2c-2.48 0-4.5 2.02-4.5 4.5s2.02 4.5 4.5 4.5 4.5-2.02 4.5-4.5-2.02-4.5-4.5-4.5z"/></svg><svg viewBox="0 0 24 24" id="restore" xmlns="http://www.w3.org/2000/svg"><path fill="none" d="M0 0h24v24H0V0z"/><path d="M13 3a9 9 0 0 0-9 9H1l4 3.99L9 12H6c0-3.87 3.13-7 7-7s7 3.13 7 7-3.13 7-7 7c-1.93 0-3.68-.79-4.94-2.06l-1.42 1.42A8.954 8.954 0 0 0 13 21a9 9 0 0 0 0-18zm-1 5v5l4.25 2.52.77-1.28-3.52-2.09V8z"/></svg><svg viewBox="0 0 24 24" id="search" xmlns="http://www.w3.org/2000/svg"><path fill="none" d="M0 0h24v24H0V0z"/><path d="M15.5 14h-.79l-.28-.27A6.471 6.471 0 0 0 16 9.5 6.5 6.5 0 1 0 9.5 16c1.61 0 3.09-.59 4.23-1.57l.27.28v.79l5 4.99L20.49 19l-4.99-5zm-6 0C7.01 14 5 11.99 5 9.5S7.01 5 9.5 5 14 7.01 14 9.5 11.99 14 9.5 14z"/></svg><svg viewBox="0 0 40 40" id="search-custom" xmlns="http://www.w3.org/2000/svg"><path d="M3.5 38.5a1.982 1.982 0 0 1-1.414-.586A1.976 1.976 0 0 1 1.5 36.5c0-.531.207-1.035.586-1.414l18.23-17.383 1.985 1.988-17.399 18.23A1.967 1.967 0 0 1 3.5 38.5z" fill="#98ccfd"/><path d="M20.309 18.406l1.293 1.293L4.559 37.562a1.502 1.502 0 0 1-2.121 0c-.583-.585-.583-1.535-.016-2.105l17.887-17.05m.02-1.4L1.73 34.735a2.506 2.506 0 0 0 0 3.536c.489.488 1.13.73 1.77.73.64 0 1.277-.242 1.766-.73L23 19.684z" fill="#4788c7"/><path d="M26 26.5c-6.895 0-12.5-5.605-12.5-12.5S19.105 1.5 26 1.5 38.5 7.105 38.5 14 32.895 26.5 26 26.5z" fill="#dff0fe"/><path d="M26 2c6.617 0 12 5.383 12 12s-5.383 12-12 12-12-5.383-12-12S19.383 2 26 2m0-1c-7.18 0-13 5.82-13 13s5.82 13 13 13 13-5.82 13-13S33.18 1 26 1z" fill="#4788c7"/></svg><svg viewBox="0 0 40 40" id="selection-tool-custom" xmlns="http://www.w3.org/2000/svg"><path d="M17.707 24.645l-7.207 5.91V2.172L30.898 21.75l-9.218 1.184 5.824 13.695-3.969 1.715z" fill="#dff0fe"/><path d="M11 3.348l18.8 18.039-7.53.965-1.31.168.517 1.214 5.375 12.63-3.055 1.32-5.367-12.621-.524-1.227-1.031.844L11 29.5V3.348M10 1v30.613l7.508-6.16L23.27 39l4.89-2.11-5.762-13.546L32 22.114z" fill="#4788c7"/></svg><svg viewBox="0 0 24 24" id="settings" xmlns="http://www.w3.org/2000/svg"><path fill="none" d="M0 0h24v24H0V0z"/><path d="M19.43 12.98c.04-.32.07-.64.07-.98 0-.34-.03-.66-.07-.98l2.11-1.65c.19-.15.24-.42.12-.64l-2-3.46a.5.5 0 0 0-.61-.22l-2.49 1c-.52-.4-1.08-.73-1.69-.98l-.38-2.65A.488.488 0 0 0 14 2h-4c-.25 0-.46.18-.49.42l-.38 2.65c-.61.25-1.17.59-1.69.98l-2.49-1a.566.566 0 0 0-.18-.03c-.17 0-.34.09-.43.25l-2 3.46c-.13.22-.07.49.12.64l2.11 1.65c-.04.32-.07.65-.07.98 0 .33.03.66.07.98l-2.11 1.65c-.19.15-.24.42-.12.64l2 3.46a.5.5 0 0 0 .61.22l2.49-1c.52.4 1.08.73 1.69.98l.38 2.65c.03.24.24.42.49.42h4c.25 0 .46-.18.49-.42l.38-2.65c.61-.25 1.17-.59 1.69-.98l2.49 1c.06.02.12.03.18.03.17 0 .34-.09.43-.25l2-3.46c.12-.22.07-.49-.12-.64l-2.11-1.65zm-1.98-1.71c.04.31.05.52.05.73 0 .21-.02.43-.05.73l-.14 1.13.89.7 1.08.84-.7 1.21-1.27-.51-1.04-.42-.9.68c-.43.32-.84.56-1.25.73l-1.06.43-.16 1.13-.2 1.35h-1.4l-.19-1.35-.16-1.13-1.06-.43c-.43-.18-.83-.41-1.23-.71l-.91-.7-1.06.43-1.27.51-.7-1.21 1.08-.84.89-.7-.14-1.13c-.03-.31-.05-.54-.05-.74s.02-.43.05-.73l.14-1.13-.89-.7-1.08-.84.7-1.21 1.27.51 1.04.42.9-.68c.43-.32.84-.56 1.25-.73l1.06-.43.16-1.13.2-1.35h1.39l.19 1.35.16 1.13 1.06.43c.43.18.83.41 1.23.71l.91.7 1.06-.43 1.27-.51.7 1.21-1.07.85-.89.7.14 1.13zM12 8c-2.21 0-4 1.79-4 4s1.79 4 4 4 4-1.79 4-4-1.79-4-4-4zm0 6c-1.1 0-2-.9-2-2s.9-2 2-2 2 .9 2 2-.9 2-2 2z"/></svg><svg viewBox="0 0 40 40" id="share-custom" xmlns="http://www.w3.org/2000/svg"><path d="M21 37.5c-9.648 0-17.5-7.852-17.5-17.5S11.352 2.5 21 2.5 38.5 10.352 38.5 20 30.648 37.5 21 37.5zm0-30C14.105 7.5 8.5 13.105 8.5 20S14.105 32.5 21 32.5 33.5 26.895 33.5 20 27.895 7.5 21 7.5z" fill="#b6dcfe"/><path d="M21 3c9.375 0 17 7.625 17 17s-7.625 17-17 17S4 29.375 4 20 11.625 3 21 3m0 30c7.168 0 13-5.832 13-13S28.168 7 21 7 8 12.832 8 20s5.832 13 13 13m0-31C11.059 2 3 10.059 3 20s8.059 18 18 18 18-8.059 18-18S30.941 2 21 2zm0 30c-6.629 0-12-5.371-12-12S14.371 8 21 8s12 5.371 12 12-5.371 12-12 12z" fill="#4788c7"/><path d="M34.5 8c0 3.04-2.46 5.5-5.5 5.5s-5.5-2.46-5.5-5.5 2.46-5.5 5.5-5.5 5.5 2.46 5.5 5.5z" fill="#dff0fe"/><path d="M29 3c2.758 0 5 2.242 5 5s-2.242 5-5 5-5-2.242-5-5 2.242-5 5-5m0-1c-3.313 0-6 2.688-6 6 0 3.313 2.688 6 6 6 3.313 0 6-2.688 6-6 0-3.313-2.688-6-6-6z" fill="#4788c7"/><path d="M35.5 32c0 3.04-2.46 5.5-5.5 5.5s-5.5-2.46-5.5-5.5 2.46-5.5 5.5-5.5 5.5 2.46 5.5 5.5z" fill="#dff0fe"/><path d="M30 27c2.758 0 5 2.242 5 5s-2.242 5-5 5-5-2.242-5-5 2.242-5 5-5m0-1c-3.313 0-6 2.688-6 6 0 3.313 2.688 6 6 6 3.313 0 6-2.688 6-6 0-3.313-2.688-6-6-6z" fill="#4788c7"/><path d="M12.5 20c0 3.04-2.46 5.5-5.5 5.5S1.5 23.04 1.5 20s2.46-5.5 5.5-5.5 5.5 2.46 5.5 5.5z" fill="#dff0fe"/><path d="M7 15c2.758 0 5 2.242 5 5s-2.242 5-5 5-5-2.242-5-5 2.242-5 5-5m0-1c-3.313 0-6 2.688-6 6 0 3.313 2.688 6 6 6 3.313 0 6-2.688 6-6 0-3.313-2.688-6-6-6z" fill="#4788c7"/></svg><svg viewBox="0 0 64 64" id="shared-folder-file-custom" xmlns="http://www.w3.org/2000/svg"><path d="M3 8c-1.652 0-3 1.348-3 3v41c0 2.207 1.793 4 4 4h54c2.207 0 4-1.793 4-4V21c0-1.652-1.348-3-3-3h-3v-1c0-1.652-1.348-3-3-3H27.707a2.983 2.983 0 0 1-2.11-.867l-3.722-3.688A4.995 4.995 0 0 0 18.355 8zm0 2h15.355c.797 0 1.543.309 2.11.867l3.723 3.688A4.995 4.995 0 0 0 27.706 16H53c.55 0 1 .45 1 1v35c0 .617.223 1.34.633 2H4c-1.102 0-2-.898-2-2v-6h41c.55 0 1-.45 1-1s-.45-1-1-1H2V11c0-.55.45-1 1-1zm53 10h3c.55 0 1 .45 1 1v31c0 1.102-.898 2-2 2-1.246 0-2-1.39-2-2zm-29 2c-2.758 0-5 2.242-5 5v2c0 .992.3 1.914.8 2.691-2.741 1.196-4.917 3.836-5.519 7.075a1 1 0 1 0 1.969.367c.535-2.89 2.613-5.184 5.121-5.899A4.95 4.95 0 0 0 27 34a4.96 4.96 0 0 0 2.629-.766c2.508.715 4.586 3.012 5.121 5.903a1.003 1.003 0 0 0 1.168.8 1 1 0 0 0 .8-1.167c-.6-3.239-2.777-5.883-5.519-7.079.5-.777.801-1.699.801-2.691v-2c0-2.758-2.242-5-5-5zm0 2c1.652 0 3 1.348 3 3v2c0 1.652-1.348 3-3 3s-3-1.348-3-3v-2c0-1.652 1.348-3 3-3zm20 20c-.55 0-1 .45-1 1s.45 1 1 1h4c.55 0 1-.45 1-1s-.45-1-1-1zM5 48c-.55 0-1 .45-1 1v2c0 .55.45 1 1 1s1-.45 1-1v-2c0-.55-.45-1-1-1zm5 0c-.55 0-1 .45-1 1v2c0 .55.45 1 1 1s1-.45 1-1v-2c0-.55-.45-1-1-1zm5 0c-.55 0-1 .45-1 1v2c0 .55.45 1 1 1s1-.45 1-1v-2c0-.55-.45-1-1-1zm5 0c-.55 0-1 .45-1 1v2c0 .55.45 1 1 1s1-.45 1-1v-2c0-.55-.45-1-1-1zm5 0c-.55 0-1 .45-1 1v2c0 .55.45 1 1 1s1-.45 1-1v-2c0-.55-.45-1-1-1zm5 0c-.55 0-1 .45-1 1v2c0 .55.45 1 1 1s1-.45 1-1v-2c0-.55-.45-1-1-1zm5 0c-.55 0-1 .45-1 1v2c0 .55.45 1 1 1s1-.45 1-1v-2c0-.55-.45-1-1-1zm5 0c-.55 0-1 .45-1 1v2c0 .55.45 1 1 1s1-.45 1-1v-2c0-.55-.45-1-1-1zm5 0c-.55 0-1 .45-1 1v2c0 .55.45 1 1 1s1-.45 1-1v-2c0-.55-.45-1-1-1zm5 0c-.55 0-1 .45-1 1v2c0 .55.45 1 1 1s1-.45 1-1v-2c0-.55-.45-1-1-1z"/></svg><svg viewBox="0 0 50 50" id="shield-custom" xmlns="http://www.w3.org/2000/svg"><path d="M25 0c-2.453 0-4.523 1.355-7.594 2.938-3.07 1.582-7.191 3.492-13.625 4.906L3 8.03v.781c0 15.32 5.371 25.56 10.75 31.907 5.379 6.347 10.844 8.875 10.844 8.875l.437.218.438-.218S47 38.469 47 8.812v-.78l-.781-.188C39.785 6.43 35.664 4.52 32.594 2.937 29.524 1.355 27.454 0 25 0zm0 2c1.645 0 3.55 1.105 6.688 2.719 2.98 1.531 7.171 3.41 13.25 4.843-.368 27.118-18.684 37.29-19.97 37.97-.62-.302-4.948-2.466-9.718-8.094C10.223 33.504 5.246 23.96 5.062 9.561c6.079-1.433 10.27-3.312 13.25-4.843C21.45 3.105 23.355 2 25 2zm7.688 12.625l-.532.844-8.125 12.625-5.375-4.844-.718-.656-1.344 1.468.75.688 6.187 5.625.875.781.657-1 8.78-13.625.532-.843z"/></svg><svg viewBox="0 0 50 50" id="shield-custom" xmlns="http://www.w3.org/2000/svg"><path d="M25 0c-2.453 0-4.523 1.355-7.594 2.938-3.07 1.582-7.191 3.492-13.625 4.906L3 8.03v.781c0 15.32 5.371 25.56 10.75 31.907 5.379 6.347 10.844 8.875 10.844 8.875l.437.218.438-.218S47 38.469 47 8.812v-.78l-.781-.188C39.785 6.43 35.664 4.52 32.594 2.937 29.524 1.355 27.454 0 25 0zm0 2c1.645 0 3.55 1.105 6.688 2.719 2.98 1.531 7.171 3.41 13.25 4.843-.368 27.118-18.684 37.29-19.97 37.97-.62-.302-4.948-2.466-9.718-8.094C10.223 33.504 5.246 23.96 5.062 9.561c6.079-1.433 10.27-3.312 13.25-4.843C21.45 3.105 23.355 2 25 2zm7.688 12.625l-.532.844-8.125 12.625-5.375-4.844-.718-.656-1.344 1.468.75.688 6.187 5.625.875.781.657-1 8.78-13.625.532-.843z"/></svg><svg viewBox="0 0 24 24" id="sort" xmlns="http://www.w3.org/2000/svg"><path fill="none" d="M0 0h24v24H0V0z"/><path d="M3 18h6v-2H3v2zM3 6v2h18V6H3zm0 7h12v-2H3v2z"/></svg><svg viewBox="0 0 64 64" id="spreadsheet-file-custom" xmlns="http://www.w3.org/2000/svg"><path d="M35.137 2.387a3.09 3.09 0 0 0-.657.043L5.305 7.578A3.997 3.997 0 0 0 2 11.516v38.968a3.991 3.991 0 0 0 3.305 3.938L34.48 59.57c.172.032.348.043.52.043a2.98 2.98 0 0 0 1.926-.699 2.988 2.988 0 0 0 1.074-2.3V52h19c1.652 0 3-1.348 3-3V13c0-1.652-1.348-3-3-3H38V5.383c0-.887-.39-1.727-1.074-2.297a2.958 2.958 0 0 0-1.79-.7zm-.032 2.004a.979.979 0 0 1 .536.226.986.986 0 0 1 .359.766v51.23a.987.987 0 0 1-.36.77.974.974 0 0 1-.812.219L5.652 52.453A1.996 1.996 0 0 1 4 50.484V11.516c0-.973.695-1.801 1.652-1.97l29.172-5.148a.984.984 0 0 1 .281-.007zM38 12h19c.55 0 1 .45 1 1v36c0 .55-.45 1-1 1H38v-6h3a1 1 0 1 0 0-2h-3v-4h3a1 1 0 1 0 0-2h-3v-4h3a1 1 0 1 0 0-2h-3v-4h3a1 1 0 1 0 0-2h-3v-4h3a1 1 0 1 0 0-2h-3zm7 6a1 1 0 1 0 0 2h6a1 1 0 1 0 0-2zm-32.176 2.016c-.129.023-.254.07-.37.144-.462.3-.595.922-.294 1.387L18.31 31l-6.149 9.453c-.3.465-.168 1.086.293 1.387a1.01 1.01 0 0 0 1.387-.293l5.66-8.711 5.66 8.71a1.006 1.006 0 0 0 1.387.294c.46-.3.594-.922.293-1.387L20.69 31l6.149-9.453c.3-.465.168-1.086-.293-1.387a1.005 1.005 0 0 0-1.387.293l-5.66 8.711-5.66-8.71a.998.998 0 0 0-1.016-.438zM45 24a1 1 0 1 0 0 2h6a1 1 0 1 0 0-2zm0 6a1 1 0 1 0 0 2h6a1 1 0 1 0 0-2zm0 6a1 1 0 1 0 0 2h6a1 1 0 1 0 0-2zm0 6a1 1 0 1 0 0 2h6a1 1 0 1 0 0-2z"/></svg><svg viewBox="0 0 24 24" id="star" xmlns="http://www.w3.org/2000/svg"><g fill="none"><path d="M0 0h24v24H0V0z"/><path d="M0 0h24v24H0V0z"/></g><path d="M12 17.27L18.18 21l-1.64-7.03L22 9.24l-7.19-.61L12 2 9.19 8.63 2 9.24l5.46 4.73L5.82 21 12 17.27z"/></svg><svg viewBox="0 0 24 24" id="star-border" xmlns="http://www.w3.org/2000/svg"><path fill="none" d="M0 0h24v24H0V0z"/><path d="M22 9.24l-7.19-.62L12 2 9.19 8.63 2 9.24l5.46 4.73L5.82 21 12 17.27 18.18 21l-1.63-7.03L22 9.24zM12 15.4l-3.76 2.27 1-4.28-3.32-2.88 4.38-.38L12 6.1l1.71 4.04 4.38.38-3.32 2.88 1 4.28L12 15.4z"/></svg><svg viewBox="0 0 24 24" id="storage" xmlns="http://www.w3.org/2000/svg"><path fill="none" d="M0 0h24v24H0V0z"/><path d="M2 20h20v-4H2v4zm2-3h2v2H4v-2zM2 4v4h20V4H2zm4 3H4V5h2v2zm-4 7h20v-4H2v4zm2-3h2v2H4v-2z"/></svg><svg viewBox="0 0 24 24" id="style" xmlns="http://www.w3.org/2000/svg"><path fill="none" d="M0 0h24v24H0V0z"/><path d="M2.53 19.65l1.34.56v-9.03l-2.43 5.86c-.41 1.02.08 2.19 1.09 2.61zm19.5-3.7L17.07 3.98a2.013 2.013 0 0 0-1.81-1.23c-.26 0-.53.04-.79.15L7.1 5.95a1.999 1.999 0 0 0-1.08 2.6l4.96 11.97a1.998 1.998 0 0 0 2.6 1.08l7.36-3.05a1.994 1.994 0 0 0 1.09-2.6zm-9.2 3.8L7.87 7.79l7.35-3.04h.01l4.95 11.95-7.35 3.05z"/><circle cx="11" cy="9" r="1"/><path d="M5.88 19.75c0 1.1.9 2 2 2h1.45l-3.45-8.34v6.34z"/></svg><svg viewBox="0 0 24 24" id="subdirectory-arrow-right" xmlns="http://www.w3.org/2000/svg"><path opacity=".87" fill="none" d="M24 24H0V0h24v24z"/><path d="M19 15l-6 6-1.42-1.42L15.17 16H4V4h2v10h9.17l-3.59-3.58L13 9l6 6z"/></svg><svg viewBox="0 0 24 24" id="subscriptions" xmlns="http://www.w3.org/2000/svg"><path fill="none" d="M0 0h24v24H0V0z"/><path d="M4 6h16v2H4zm2-4h12v2H6zm14 8H4c-1.1 0-2 .9-2 2v8c0 1.1.9 2 2 2h16c1.1 0 2-.9 2-2v-8c0-1.1-.9-2-2-2zm0 10H4v-8h16v8zm-10-7.27v6.53L16 16z"/></svg><svg viewBox="0 0 64 64" id="text-file-custom" xmlns="http://www.w3.org/2000/svg"><path d="M17.66 4a4.97 4.97 0 0 0-3.539 1.46l-8.66 8.661A4.99 4.99 0 0 0 4 17.661V57c0 1.648 1.352 3 3 3h40c1.648 0 3-1.352 3-3V46h8c1.102 0 2-.898 2-2V24c0-1.102-.898-2-2-2h-8V7c0-1.648-1.352-3-3-3zM18 6h29c.55 0 1 .45 1 1v15H16c-1.102 0-2 .898-2 2v20c0 1.102.898 2 2 2h32v11c0 .55-.45 1-1 1H7c-.55 0-1-.45-1-1V18h9c1.652 0 3-1.348 3-3zm-2 .5V15c0 .55-.45 1-1 1H6.5c.113-.164.238-.32.383-.46l8.656-8.657A2.79 2.79 0 0 1 16 6.5zM16 24h42v20H16zm8 4a1 1 0 1 0 0 2h2v9a1 1 0 1 0 2 0v-9h2a1 1 0 1 0 0-2zm20 0a1 1 0 1 0 0 2h2v9a1 1 0 1 0 2 0v-9h2a1 1 0 1 0 0-2zm-10.14.012a.954.954 0 0 0-.376.129 1.007 1.007 0 0 0-.343 1.375L35.832 34l-2.691 4.484a1.008 1.008 0 0 0 .343 1.375c.16.094.34.141.516.141a1 1 0 0 0 .86-.484L37 35.94l2.14 3.575A1 1 0 0 0 40 40c.176 0 .355-.047.516-.14.472-.286.625-.903.343-1.376L38.168 34l2.691-4.484a1.008 1.008 0 0 0-.343-1.375 1.008 1.008 0 0 0-1.375.343L37 32.06l-2.14-3.575a1.001 1.001 0 0 0-1-.472zM9 52a1 1 0 0 0-1 1v2a1 1 0 1 0 2 0v-2a1 1 0 0 0-1-1zm5 0a1 1 0 0 0-1 1v2a1 1 0 1 0 2 0v-2a1 1 0 0 0-1-1zm5 0a1 1 0 0 0-1 1v2a1 1 0 1 0 2 0v-2a1 1 0 0 0-1-1zm5 0a1 1 0 0 0-1 1v2a1 1 0 1 0 2 0v-2a1 1 0 0 0-1-1zm5 0a1 1 0 0 0-1 1v2a1 1 0 1 0 2 0v-2a1 1 0 0 0-1-1zm5 0a1 1 0 0 0-1 1v2a1 1 0 1 0 2 0v-2a1 1 0 0 0-1-1zm5 0a1 1 0 0 0-1 1v2a1 1 0 1 0 2 0v-2a1 1 0 0 0-1-1zm5 0a1 1 0 0 0-1 1v2a1 1 0 1 0 2 0v-2a1 1 0 0 0-1-1z"/></svg><svg viewBox="0 0 24 24" id="translate" xmlns="http://www.w3.org/2000/svg"><path fill="none" d="M0 0h24v24H0V0z"/><path d="M12.87 15.07l-2.54-2.51.03-.03A17.52 17.52 0 0 0 14.07 6H17V4h-7V2H8v2H1v1.99h11.17C11.5 7.92 10.44 9.75 9 11.35 8.07 10.32 7.3 9.19 6.69 8h-2c.73 1.63 1.73 3.17 2.98 4.56l-5.09 5.02L4 19l5-5 3.11 3.11.76-2.04zM18.5 10h-2L12 22h2l1.12-3h4.75L21 22h2l-4.5-12zm-2.62 7l1.62-4.33L19.12 17h-3.24z"/></svg><svg viewBox="0 0 40 40" id="trash-custom" xmlns="http://www.w3.org/2000/svg"><path d="M7.5 34.5V34L3.496 5.93V5.5H36.5V6l-3.996 27.93v.57z" fill="#dff0fe"/><path d="M35.988 6l-3.976 27.86-.012.07V34H8v-.07l-.012-.07L4.012 6h31.976M37 5H3v1l4 28v1h26v-1l4-28z" fill="#4788c7"/><path d="M3 5.5a.501.501 0 0 1-.5-.5V2c0-.277.227-.5.5-.5h34c.273 0 .5.223.5.5v3c0 .277-.227.5-.5.5z" fill="#b6dcfe"/><path d="M37 2v3H3V2h34m0-1H3c-.55 0-1 .45-1 1v3c0 .55.45 1 1 1h34c.55 0 1-.45 1-1V2c0-.55-.45-1-1-1z" fill="#4788c7"/><path d="M10 38.5A2.502 2.502 0 0 1 7.5 36v-1.5h25V36c0 1.379-1.121 2.5-2.5 2.5z" fill="#b6dcfe"/><path d="M32 35v1c0 1.102-.898 2-2 2H10c-1.102 0-2-.898-2-2v-1h24m1-1H7v2a3 3 0 0 0 3 3h20a3 3 0 0 0 3-3zm-5.738-12.227l-1.125-1.902-.707 1.547-1.703-.121 1.125 1.902h-3.23l-1.352 1.403L21.62 26h3.238c1.168 0 2.114-.496 2.594-1.363.48-.864.402-1.914-.191-2.864zm-2.672-4.644l-2.137-3.625C21.86 12.547 20.977 12 20.035 12c-.941 0-1.824.547-2.437 1.531l-1.336 2.254 1.66-.031.746 1.46 1.32-2.226a.548.548 0 0 1 .047-.07.344.344 0 0 1 .024.039l2.117 3.59 1.918.488zm-9.434 6.055l1.903-3.313-.497-1.828-1.933.434-1.895 3.3c-.59 1.008-.656 2.067-.18 2.903.481.84 1.423 1.32 2.587 1.32h3.453l-1-1.398 1-1.403h-3.446c0-.004.004-.008.008-.015z" fill="#4788c7"/></svg><svg viewBox="0 0 24 24" id="twitter" xmlns="http://www.w3.org/2000/svg"><path d="M22 3.999c-.78.463-2.345 1.094-3.265 1.276-.027.007-.049.016-.075.023A4.5 4.5 0 0 0 11 8.499c0 .131-.011.372 0 .5-3.353 0-5.905-1.756-7.735-4-.199.5-.286 1.29-.286 2.032 0 1.401 1.095 2.777 2.8 3.63-.314.081-.66.139-1.02.139A2.686 2.686 0 0 1 3 10.183v.051c0 1.958 2.078 3.291 3.926 3.662-.375.221-1.131.243-1.5.243-.26 0-1.18-.119-1.426-.165.514 1.605 2.368 2.507 4.135 2.539-1.382 1.084-2.341 1.486-5.171 1.486H2C3.788 19.145 6.065 20 8.347 20 15.777 20 20 14.337 20 8.999l-.005-.447c0-.018.005-.035.005-.053 0-.027-.008-.053-.008-.08a18.384 18.384 0 0 0-.009-.329A8.217 8.217 0 0 0 22 5.999a8.07 8.07 0 0 1-2.32.636c.834-.5 2.019-1.692 2.32-2.636z"/></svg><svg viewBox="0 0 24 24" id="undo" xmlns="http://www.w3.org/2000/svg"><path fill="none" d="M0 0h24v24H0V0z"/><path d="M12.5 8c-2.65 0-5.05.99-6.9 2.6L2 7v9h9l-3.62-3.62c1.39-1.16 3.16-1.88 5.12-1.88 3.54 0 6.55 2.31 7.6 5.5l2.37-.78C21.08 11.03 17.15 8 12.5 8z"/></svg><svg viewBox="0 0 24 24" id="unfold-more" xmlns="http://www.w3.org/2000/svg"><path d="M0 0h24v24H0V0z" fill="none"/><path d="M12 5.83L15.17 9l1.41-1.41L12 3 7.41 7.59 8.83 9 12 5.83zm0 12.34L8.83 15l-1.41 1.41L12 21l4.59-4.59L15.17 15 12 18.17z"/></svg><svg viewBox="0 0 64 64" id="upload-custom" xmlns="http://www.w3.org/2000/svg"><path d="M32.188 4.016c-8.114.316-15.329 5.254-18.504 12.761-.012.016-.024.028-.032.047-.191.45-.343.91-.5 1.367-.035.094-.074.18-.105.274C5.145 20.352-.422 27.762.027 35.953.516 44.95 8.172 52 17.453 52H28v9c0 .55.45 1 1 1h6c.55 0 1-.45 1-1v-9h15.656c6.567 0 12.102-5.184 12.336-11.547.192-5.207-3.039-9.808-7.668-11.613-.05-.031-.09-.074-.148-.094-.684-.254-1.395-.418-2.114-.543-.101-.015-.199-.043-.296-.058a21.41 21.41 0 0 0 .043-6.016c-1.23-9.246-8.84-16.797-18.098-17.957a21.856 21.856 0 0 0-3.523-.156zm.84 1.988c.804 0 1.617.047 2.437.152 8.367 1.047 15.25 7.88 16.363 16.235.25 1.894.211 3.78-.082 5.625a11.91 11.91 0 0 0-1.828.164 1 1 0 1 0 .348 1.968 9.993 9.993 0 0 1 3.129-.03c.097.015.195.027.292.042 4.848.832 8.489 5.192 8.305 10.215-.074 2.035-.812 3.914-1.992 5.469V45a1 1 0 1 0-2 0v2c0 .25.102.473.254.648a9.387 9.387 0 0 1-.41.32A10.489 10.489 0 0 1 51.656 50H36V36.414l2.293 2.293a1 1 0 0 0 1.414 0l4-4A.993.993 0 0 0 44 34a.993.993 0 0 0-.293-.707l-11-11a1 1 0 0 0-1.414 0l-11 11a1 1 0 0 0 0 1.414l4 4a1 1 0 0 0 1.414 0L28 36.414V50H17.453c-2.855 0-5.527-.762-7.828-2.078A.92.92 0 0 0 10 48a1 1 0 0 0 1-1v-2a1 1 0 1 0-2 0v2c0 .387.227.71.547.879-.23-.133-.457-.266-.68-.41C8.172 47.047 7 46.05 7 46.05c-2.875-2.559-4.754-6.156-4.977-10.207-.37-6.852 4.02-13.074 10.415-15.125A21.398 21.398 0 0 0 12 25a1 1 0 1 0 2 0c0-1.844.27-3.645.781-5.387.004-.004.004-.008.008-.015.11-.375.246-.739.379-1.102.062-.18.121-.355.191-.531C18.24 10.71 25.23 6.004 33.027 6.004zm.546 3.012c-2.832-.09-5.71.562-8.199 1.918a.995.995 0 0 0 .477 1.875c.16 0 .324-.04.476-.121 2.906-1.579 6.414-2.067 9.625-1.376a1 1 0 0 0 .422-1.953 15.64 15.64 0 0 0-2.8-.343zm6.567 1.746a1 1 0 0 0-.559 1.879c.781.418 1.527.91 2.215 1.468.187.153.41.223.629.223a.998.998 0 0 0 .633-1.773 16.044 16.044 0 0 0-2.536-1.684 1.031 1.031 0 0 0-.382-.113zM32 24.414L41.586 34 39 36.586l-3.293-3.293A1 1 0 0 0 34 34v26h-4V34a1 1 0 0 0-1.707-.707L25 36.586 22.414 34zM15 44a1 1 0 0 0-1 1v2a1 1 0 1 0 2 0v-2a1 1 0 0 0-1-1zm5 0a1 1 0 0 0-1 1v2a1 1 0 1 0 2 0v-2a1 1 0 0 0-1-1zm5 0a1 1 0 0 0-1 1v2a1 1 0 1 0 2 0v-2a1 1 0 0 0-1-1zm14 0a1 1 0 0 0-1 1v2a1 1 0 1 0 2 0v-2a1 1 0 0 0-1-1zm5 0a1 1 0 0 0-1 1v2a1 1 0 1 0 2 0v-2a1 1 0 0 0-1-1zm5 0a1 1 0 0 0-1 1v2a1 1 0 1 0 2 0v-2a1 1 0 0 0-1-1zm5 0a1 1 0 0 0-1 1v2a1 1 0 1 0 2 0v-2a1 1 0 0 0-1-1z"/></svg><svg viewBox="0 0 24 24" id="upload-folder-custom" xmlns="http://www.w3.org/2000/svg"><path d="M4 4c-1.102 0-2 .898-2 2v12c0 1.102.898 2 2 2h5v-2H4V6h4.594l2 2h3.937a8.937 8.937 0 0 1-.469-2h-2.656l-2-2zm11 1c0 4.406 3.594 8 8 8v-2c-3.324 0-6-2.676-6-6zm3 0c0 2.75 2.25 5 5 5V8c-1.668 0-3-1.332-3-3zm3 0a2 2 0 0 0 2 2V5zm-9 5.656L8 16h3v6h2v-6h3zm8 2.813V18h-5v2h5c1.102 0 2-.898 2-2v-4.063a8.937 8.937 0 0 1-2-.468z"/></svg><svg viewBox="0 0 64 64" id="video-file-custom" xmlns="http://www.w3.org/2000/svg"><path d="M23.656 4a4.96 4.96 0 0 0-3.535 1.465l-8.656 8.656A4.964 4.964 0 0 0 10 17.656V57c0 1.652 1.348 3 3 3h40c1.652 0 3-1.348 3-3V7c0-1.652-1.348-3-3-3zM24 6h29c.55 0 1 .45 1 1v50c0 .55-.45 1-1 1H13c-.55 0-1-.45-1-1V18h9c1.652 0 3-1.348 3-3zm-2 .5V15c0 .55-.45 1-1 1h-8.5c.113-.164.238-.324.379-.465l8.656-8.656c.145-.145.3-.27.465-.379zm6.023 15.316a2.078 2.078 0 0 0-1.027.247 1.998 1.998 0 0 0-1.031 1.753v18.368c0 .726.39 1.398 1.031 1.75a1.983 1.983 0 0 0 2.035-.063l14.5-9.183a1.99 1.99 0 0 0 0-3.376l-14.5-9.187a2.043 2.043 0 0 0-1.008-.309zm-.058 2L42.465 33l-14.5 9.188zM15 52c-.55 0-1 .45-1 1v2c0 .55.45 1 1 1s1-.45 1-1v-2c0-.55-.45-1-1-1zm5 0c-.55 0-1 .45-1 1v2c0 .55.45 1 1 1s1-.45 1-1v-2c0-.55-.45-1-1-1zm5 0c-.55 0-1 .45-1 1v2c0 .55.45 1 1 1s1-.45 1-1v-2c0-.55-.45-1-1-1zm5 0c-.55 0-1 .45-1 1v2c0 .55.45 1 1 1s1-.45 1-1v-2c0-.55-.45-1-1-1zm5 0c-.55 0-1 .45-1 1v2c0 .55.45 1 1 1s1-.45 1-1v-2c0-.55-.45-1-1-1zm5 0c-.55 0-1 .45-1 1v2c0 .55.45 1 1 1s1-.45 1-1v-2c0-.55-.45-1-1-1zm5 0c-.55 0-1 .45-1 1v2c0 .55.45 1 1 1s1-.45 1-1v-2c0-.55-.45-1-1-1zm5 0c-.55 0-1 .45-1 1v2c0 .55.45 1 1 1s1-.45 1-1v-2c0-.55-.45-1-1-1z"/></svg><svg viewBox="0 0 24 24" id="videocam" xmlns="http://www.w3.org/2000/svg"><path fill="none" d="M0 0h24v24H0V0z"/><path d="M15 8v8H5V8h10m1-2H4c-.55 0-1 .45-1 1v10c0 .55.45 1 1 1h12c.55 0 1-.45 1-1v-3.5l4 4v-11l-4 4V7c0-.55-.45-1-1-1z"/></svg><svg viewBox="0 0 24 24" id="view-list" xmlns="http://www.w3.org/2000/svg"><path d="M0 0h24v24H0V0z" fill="none" opacity=".87"/><path d="M3 5v14h17V5H3zm4 2v2H5V7h2zm-2 6v-2h2v2H5zm0 2h2v2H5v-2zm13 2H9v-2h9v2zm0-4H9v-2h9v2zm0-4H9V7h9v2z"/></svg><svg viewBox="0 0 24 24" id="view-module" xmlns="http://www.w3.org/2000/svg"><path d="M0 0h24v24H0V0z" fill="none"/><path d="M4 5v13h17V5H4zm10 2v3.5h-3V7h3zM6 7h3v3.5H6V7zm0 9v-3.5h3V16H6zm5 0v-3.5h3V16h-3zm8 0h-3v-3.5h3V16zm-3-5.5V7h3v3.5h-3z"/></svg><svg viewBox="0 0 24 24" id="visibility" xmlns="http://www.w3.org/2000/svg"><path fill="none" d="M0 0h24v24H0V0z"/><path d="M12 6a9.77 9.77 0 0 1 8.82 5.5C19.17 14.87 15.79 17 12 17s-7.17-2.13-8.82-5.5A9.77 9.77 0 0 1 12 6m0-2C7 4 2.73 7.11 1 11.5 2.73 15.89 7 19 12 19s9.27-3.11 11-7.5C21.27 7.11 17 4 12 4zm0 5a2.5 2.5 0 0 1 0 5 2.5 2.5 0 0 1 0-5m0-2c-2.48 0-4.5 2.02-4.5 4.5S9.52 16 12 16s4.5-2.02 4.5-4.5S14.48 7 12 7z"/></svg><svg viewBox="0 0 16 16" id="warning" xmlns="http://www.w3.org/2000/svg"><path d="M10.115 1.308l5.635 11.269A2.365 2.365 0 0 1 13.634 16H2.365A2.365 2.365 0 0 1 .25 12.577L5.884 1.308a2.365 2.365 0 0 1 4.231 0zM8 10.5a1.5 1.5 0 1 0 0 3 1.5 1.5 0 0 0 0-3zM8 9c.552 0 1-.32 1-.714V4.714C9 4.32 8.552 4 8 4s-1 .32-1 .714v3.572C7 8.68 7.448 9 8 9z" fill-rule="evenodd"/></svg><svg viewBox="0 0 64 64" id="word-file-custom" xmlns="http://www.w3.org/2000/svg"><path d="M21.656 4a4.96 4.96 0 0 0-3.535 1.465L9.465 14.12A4.964 4.964 0 0 0 8 17.656V57c0 1.652 1.348 3 3 3h40c1.652 0 3-1.348 3-3V7c0-1.652-1.348-3-3-3zM22 6h29c.55 0 1 .45 1 1v50c0 .55-.45 1-1 1H11c-.55 0-1-.45-1-1V18h9c1.652 0 3-1.348 3-3zm-2 .5V15c0 .55-.45 1-1 1h-8.5c.113-.168.238-.324.379-.465l8.656-8.656c.145-.145.3-.27.465-.379zm1.14 16.512a.969.969 0 0 0-.394.02 1.008 1.008 0 0 0-.715 1.222l5 19a1 1 0 0 0 .953.746H26c.441 0 .832-.29.957-.719L31 29.547l4.043 13.734A1 1 0 0 0 36 44h.016a1.01 1.01 0 0 0 .953-.746l5-19a1.001 1.001 0 1 0-1.938-.508l-4.086 15.527-3.988-13.554a.996.996 0 0 0-1.914 0l-3.988 13.558-4.086-15.53a1.003 1.003 0 0 0-.828-.735zM13 52a1 1 0 0 0-1 1v2a1 1 0 1 0 2 0v-2a1 1 0 0 0-1-1zm5 0a1 1 0 0 0-1 1v2a1 1 0 1 0 2 0v-2a1 1 0 0 0-1-1zm5 0a1 1 0 0 0-1 1v2a1 1 0 1 0 2 0v-2a1 1 0 0 0-1-1zm5 0a1 1 0 0 0-1 1v2a1 1 0 1 0 2 0v-2a1 1 0 0 0-1-1zm5 0a1 1 0 0 0-1 1v2a1 1 0 1 0 2 0v-2a1 1 0 0 0-1-1zm5 0a1 1 0 0 0-1 1v2a1 1 0 1 0 2 0v-2a1 1 0 0 0-1-1zm5 0a1 1 0 0 0-1 1v2a1 1 0 1 0 2 0v-2a1 1 0 0 0-1-1zm5 0a1 1 0 0 0-1 1v2a1 1 0 1 0 2 0v-2a1 1 0 0 0-1-1z"/></svg></defs></svg>