<svg xmlns="http://www.w3.org/2000/svg" viewBox="0 0 24 24">
	<path d="M 20 3 L 19 4.2851562 L 6 9 L 6 15 L 8.4511719 15.888672 L 8.1679688 16.689453 C 7.9549687 17.290453 8.2690937 17.949109 8.8710938 18.162109 L 11.048828 18.933594 C 11.649828 19.146594 12.310437 18.830516 12.523438 18.228516 L 12.792969 17.464844 L 19 19.714844 L 20 21 L 22 21 L 22 3 L 20 3 z M 20 6.0507812 L 20 17.949219 L 19.681641 17.833984 L 8 13.597656 L 8 10.402344 L 19.681641 6.1660156 L 20 6.0507812 z M 2 9 L 2 15 L 4 15 L 4 9 L 2 9 z"></path>
</svg>