<svg xmlns="http://www.w3.org/2000/svg" viewBox="0 0 24 24">
	<path d="M 12 0 A 1 1 0 0 0 11 1 A 1 1 0 0 0 12 2 A 1 1 0 0 0 13 1 A 1 1 0 0 0 12 0 z M 4.2226562 3.2226562 A 1 1 0 0 0 3.2226562 4.2226562 A 1 1 0 0 0 4.2226562 5.2226562 A 1 1 0 0 0 5.2226562 4.2226562 A 1 1 0 0 0 4.2226562 3.2226562 z M 19.777344 3.2226562 A 1 1 0 0 0 18.777344 4.2226562 A 1 1 0 0 0 19.777344 5.2226562 A 1 1 0 0 0 20.777344 4.2226562 A 1 1 0 0 0 19.777344 3.2226562 z M 12 5 C 8.141 5 5 8.141 5 12 C 5 14.715 6.581 17.170359 9 18.318359 L 9 21 C 9 22.103 9.897 23 11 23 L 13 23 C 14.103 23 15 22.103 15 21 L 15 18.318359 C 17.419 17.170359 19 14.715 19 12 C 19 8.141 15.859 5 12 5 z M 12 7 C 14.757 7 17 9.243 17 12 C 17 14.11 15.660016 16.002984 13.666016 16.708984 L 13 16.943359 L 13 21 L 11 21 L 11 16.943359 L 10.333984 16.708984 C 8.3399844 16.002984 7 14.11 7 12 C 7 9.243 9.243 7 12 7 z M 1 11 A 1 1 0 0 0 0 12 A 1 1 0 0 0 1 13 A 1 1 0 0 0 2 12 A 1 1 0 0 0 1 11 z M 23 11 A 1 1 0 0 0 22 12 A 1 1 0 0 0 23 13 A 1 1 0 0 0 24 12 A 1 1 0 0 0 23 11 z M 4.2226562 18.777344 A 1 1 0 0 0 3.2226562 19.777344 A 1 1 0 0 0 4.2226562 20.777344 A 1 1 0 0 0 5.2226562 19.777344 A 1 1 0 0 0 4.2226562 18.777344 z M 19.777344 18.777344 A 1 1 0 0 0 18.777344 19.777344 A 1 1 0 0 0 19.777344 20.777344 A 1 1 0 0 0 20.777344 19.777344 A 1 1 0 0 0 19.777344 18.777344 z"></path>
</svg>