<svg xmlns="http://www.w3.org/2000/svg" viewBox="0 0 24 24">
	<path d="M 5 3 C 3.9069372 3 3 3.9069372 3 5 L 3 19 C 3 20.093063 3.9069372 21 5 21 L 19 21 C 20.093063 21 21 20.093063 21 19 L 21 5 C 21 3.9069372 20.093063 3 19 3 L 5 3 z M 5 5 L 19 5 L 19 9 L 5 9 L 5 5 z M 7 6 A 1 1 0 0 0 6 7 A 1 1 0 0 0 7 8 A 1 1 0 0 0 8 7 A 1 1 0 0 0 7 6 z M 10 6 A 1 1 0 0 0 9 7 A 1 1 0 0 0 10 8 A 1 1 0 0 0 11 7 A 1 1 0 0 0 10 6 z M 13 6 L 13 8 L 17 8 L 17 6 L 13 6 z M 5 11 L 8 11 L 8 19 L 5 19 L 5 11 z M 10 11 L 19 11 L 19 19 L 10 19 L 10 11 z M 12 12 L 12 14 L 17 14 L 17 12 L 12 12 z M 12 15 L 12 17 L 17 17 L 17 15 L 12 15 z"></path>
</svg>