<svg xmlns="http://www.w3.org/2000/svg" xmlns:xlink="http://www.w3.org/1999/xlink" viewBox="0 0 40 40" version="1.1">
    <g id="surface1">
        <path style="fill:none;stroke-width:2;stroke-linecap:butt;stroke-linejoin:miter;stroke:#4788C7;stroke-opacity:1;stroke-miterlimit:10;" d="M 27 17.398438 C 27 17.398438 27 9.285156 27 9 C 27 5.132813 23.867188 2 20 2 C 16.132813 2 13 5.132813 13 9 C 13 9.285156 13 17.398438 13 17.398438 "></path>
        <path style=" fill:#98CCFD;" d="M 20 38.5 C 13.105469 38.5 7.5 32.894531 7.5 26 C 7.5 19.105469 13.105469 13.5 20 13.5 C 26.894531 13.5 32.5 19.105469 32.5 26 C 32.5 32.894531 26.894531 38.5 20 38.5 Z "></path>
        <path style=" fill:#4788C7;" d="M 20 14 C 26.617188 14 32 19.382813 32 26 C 32 32.617188 26.617188 38 20 38 C 13.382813 38 8 32.617188 8 26 C 8 19.382813 13.382813 14 20 14 M 20 13 C 12.820313 13 7 18.820313 7 26 C 7 33.179688 12.820313 39 20 39 C 27.179688 39 33 33.179688 33 26 C 33 18.820313 27.179688 13 20 13 Z "></path>
        <path style=" fill:#DFF0FE;" d="M 28 26 C 28 30.417969 24.417969 34 20 34 C 15.582031 34 12 30.417969 12 26 C 12 21.582031 15.582031 18 20 18 C 24.417969 18 28 21.582031 28 26 Z "></path>
        <path style=" fill:#4788C7;" d="M 20 31 C 19.449219 31 19 30.550781 19 30 L 19 27 C 19 26.449219 19.449219 26 20 26 C 20.550781 26 21 26.449219 21 27 L 21 30 C 21 30.550781 20.550781 31 20 31 Z "></path>
    </g>
</svg>