<svg xmlns="http://www.w3.org/2000/svg" viewBox="0 0 24 24">
	<path d="M 12 2 C 8.308 2 5.0855156 4.016 3.3535156 7 L 5.7949219 7 C 6.6949219 5.888 7.8693281 5.0079531 9.2363281 4.5019531 C 8.9233281 5.2299531 8.6724688 6.08 8.4804688 7 L 10.537109 7 C 11.016109 5.023 11.687 4 12 4 C 12.313 4 12.983891 5.023 13.462891 7 L 15.519531 7 C 15.327531 6.08 15.075672 5.2299531 14.763672 4.5019531 C 16.129672 5.0079531 17.305078 5.888 18.205078 7 L 20.646484 7 C 18.914484 4.016 15.692 2 12 2 z M 1 9 L 2.2421875 15 L 3.5507812 15 L 4.4003906 11.529297 L 5.2480469 15 L 6.5507812 15 L 7.7929688 9 L 6.2890625 9 L 5.7519531 12.365234 L 4.953125 9 L 3.8398438 9 L 3.0390625 12.371094 L 2.5078125 9 L 1 9 z M 8.6035156 9 L 9.8457031 15 L 11.154297 15 L 12.003906 11.529297 L 12.851562 15 L 14.154297 15 L 15.396484 9 L 13.894531 9 L 13.355469 12.365234 L 12.558594 9 L 11.443359 9 L 10.644531 12.371094 L 10.111328 9 L 8.6035156 9 z M 16.207031 9 L 17.449219 15 L 18.757812 15 L 19.607422 11.529297 L 20.455078 15 L 21.757812 15 L 23 9 L 21.496094 9 L 20.958984 12.365234 L 20.160156 9 L 19.046875 9 L 18.246094 12.371094 L 17.714844 9 L 16.207031 9 z M 3.3535156 17 C 5.0855156 19.984 8.308 22 12 22 C 15.692 22 18.914484 19.984 20.646484 17 L 18.205078 17 C 17.305078 18.112 16.130672 18.992047 14.763672 19.498047 C 15.075672 18.770047 15.325578 17.92 15.517578 17 L 13.460938 17 C 12.981938 18.977 12.311047 20 11.998047 20 C 11.685047 20 11.016109 18.977 10.537109 17 L 8.4804688 17 C 8.6724688 17.92 8.9243281 18.770047 9.2363281 19.498047 C 7.8703281 18.992047 6.6949219 18.112 5.7949219 17 L 3.3535156 17 z"></path>
</svg>