<svg xmlns="http://www.w3.org/2000/svg" xmlns:xlink="http://www.w3.org/1999/xlink" viewBox="0 0 64 64" version="1.1">
	<g id="surface1">
		<path style=" " d="M 21.65625 4 C 20.320313 4 19.066406 4.519531 18.121094 5.464844 L 9.464844 14.121094 C 8.519531 15.066406 8 16.320313 8 17.65625 L 8 57 C 8 58.652344 9.347656 60 11 60 L 51 60 C 52.652344 60 54 58.652344 54 57 L 54 7 C 54 5.347656 52.652344 4 51 4 Z M 22 6 L 36 6 L 36 27.59375 C 35.144531 27.222656 34.210938 27 33.226563 27 L 32.773438 27 C 31.789063 27 30.859375 27.222656 30 27.59375 L 30 9 C 30 8.449219 29.554688 8 29 8 C 28.449219 8 28 8.449219 28 9 L 28 28.902344 C 27.015625 29.824219 26.277344 31.023438 25.953125 32.425781 L 24.875 37.097656 C 24.597656 38.292969 24.878906 39.53125 25.640625 40.488281 C 26.40625 41.449219 27.546875 42 28.769531 42 L 37.230469 42 C 38.457031 42 39.59375 41.449219 40.359375 40.488281 C 41.121094 39.53125 41.402344 38.292969 41.125 37.097656 L 40.046875 32.425781 C 39.726563 31.023438 38.984375 29.824219 38 28.902344 L 38 6 L 51 6 C 51.550781 6 52 6.449219 52 7 L 52 57 C 52 57.550781 51.550781 58 51 58 L 11 58 C 10.449219 58 10 57.550781 10 57 L 10 18 L 19 18 C 20.652344 18 22 16.652344 22 15 Z M 20 6.5 L 20 15 C 20 15.550781 19.550781 16 19 16 L 10.5 16 C 10.609375 15.835938 10.734375 15.679688 10.878906 15.535156 L 19.535156 6.878906 C 19.679688 6.738281 19.835938 6.609375 20 6.5 Z M 32 8 C 31.449219 8 31 8.445313 31 9 C 31 9.554688 31.449219 10 32 10 L 34 10 C 34.550781 10 35 9.554688 35 9 C 35 8.445313 34.550781 8 34 8 Z M 32 13 C 31.449219 13 31 13.445313 31 14 C 31 14.554688 31.449219 15 32 15 L 34 15 C 34.550781 15 35 14.554688 35 14 C 35 13.445313 34.550781 13 34 13 Z M 32 18 C 31.449219 18 31 18.445313 31 19 C 31 19.554688 31.449219 20 32 20 L 34 20 C 34.550781 20 35 19.554688 35 19 C 35 18.445313 34.550781 18 34 18 Z M 32 23 C 31.449219 23 31 23.445313 31 24 C 31 24.554688 31.449219 25 32 25 L 34 25 C 34.550781 25 35 24.554688 35 24 C 35 23.445313 34.550781 23 34 23 Z M 32.773438 29 L 33.226563 29 C 35.570313 29 37.574219 30.59375 38.097656 32.875 L 39.175781 37.550781 C 39.316406 38.148438 39.175781 38.765625 38.796875 39.246094 C 38.414063 39.722656 37.839844 40 37.230469 40 L 28.769531 40 C 28.160156 40 27.589844 39.722656 27.207031 39.246094 C 26.824219 38.765625 26.683594 38.148438 26.824219 37.550781 L 27.902344 32.875 C 28.429688 30.59375 30.429688 29 32.773438 29 Z M 31 34 C 30.449219 34 30 34.445313 30 35 C 30 35.554688 30.449219 36 31 36 L 35 36 C 35.550781 36 36 35.554688 36 35 C 36 34.445313 35.550781 34 35 34 Z M 13 52 C 12.449219 52 12 52.445313 12 53 C 12 53.554688 12.449219 54 13 54 L 17 54 C 17.550781 54 18 53.554688 18 53 C 18 52.445313 17.550781 52 17 52 Z M 21 52 C 20.449219 52 20 52.445313 20 53 C 20 53.554688 20.449219 54 21 54 L 49 54 C 49.550781 54 50 53.554688 50 53 C 50 52.445313 49.550781 52 49 52 Z "></path>
	</g>
</svg>