<svg xmlns="http://www.w3.org/2000/svg" xmlns:xlink="http://www.w3.org/1999/xlink" viewBox="0 0 64 64" version="1.1">
	<g id="surface1">
		<path style=" " d="M 21.65625 4 C 20.320313 4 19.0625 4.519531 18.121094 5.464844 L 9.464844 14.121094 C 8.519531 15.066406 8 16.320313 8 17.65625 L 8 57 C 8 58.652344 9.347656 60 11 60 L 51 60 C 52.652344 60 54 58.652344 54 57 L 54 7 C 54 5.347656 52.652344 4 51 4 Z M 22 6 L 51 6 C 51.550781 6 52 6.449219 52 7 L 52 57 C 52 57.550781 51.550781 58 51 58 L 11 58 C 10.449219 58 10 57.550781 10 57 L 10 18 L 19 18 C 20.652344 18 22 16.652344 22 15 Z M 20 6.5 L 20 15 C 20 15.550781 19.550781 16 19 16 L 10.5 16 C 10.609375 15.835938 10.734375 15.679688 10.878906 15.535156 L 19.535156 6.878906 C 19.679688 6.734375 19.835938 6.609375 20 6.5 Z M 42.78125 18.023438 L 24.78125 22.023438 C 24.328125 22.125 24 22.53125 24 23 L 24 37 C 20.691406 37 18 39.242188 18 42 C 18 44.757813 20.691406 47 24 47 C 27.308594 47 30 44.757813 30 42 L 30 29.910156 L 38 28.136719 L 38 33 C 34.691406 33 32 35.242188 32 38 C 32 40.757813 34.691406 43 38 43 C 41.308594 43 44 40.757813 44 38 L 44 19 C 44 18.695313 43.863281 18.410156 43.625 18.21875 C 43.390625 18.03125 43.082031 17.960938 42.78125 18.023438 Z M 42 20.246094 L 42 38 C 42 39.652344 40.207031 41 38 41 C 35.792969 41 34 39.652344 34 38 C 34 36.347656 35.792969 35 38 35 C 38.28125 35 38.5625 35.023438 38.839844 35.066406 C 39.128906 35.117188 39.421875 35.03125 39.648438 34.84375 C 39.871094 34.652344 40 34.375 40 34.078125 L 40 26.890625 C 40 26.585938 39.863281 26.300781 39.625 26.109375 C 39.390625 25.921875 39.078125 25.847656 38.78125 25.910156 L 28.78125 28.136719 C 28.328125 28.238281 28 28.644531 28 29.109375 L 28 42 C 28 43.652344 26.207031 45 24 45 C 21.792969 45 20 43.652344 20 42 C 20 40.347656 21.792969 39 24 39 C 24.28125 39 24.5625 39.023438 24.839844 39.066406 C 25.128906 39.117188 25.425781 39.03125 25.648438 38.84375 C 25.871094 38.652344 26 38.375 26 38.078125 L 26 23.800781 Z M 13 52 C 12.449219 52 12 52.445313 12 53 L 12 55 C 12 55.554688 12.449219 56 13 56 C 13.550781 56 14 55.554688 14 55 L 14 53 C 14 52.445313 13.550781 52 13 52 Z M 18 52 C 17.449219 52 17 52.445313 17 53 L 17 55 C 17 55.554688 17.449219 56 18 56 C 18.550781 56 19 55.554688 19 55 L 19 53 C 19 52.445313 18.550781 52 18 52 Z M 23 52 C 22.449219 52 22 52.445313 22 53 L 22 55 C 22 55.554688 22.449219 56 23 56 C 23.550781 56 24 55.554688 24 55 L 24 53 C 24 52.445313 23.550781 52 23 52 Z M 28 52 C 27.449219 52 27 52.445313 27 53 L 27 55 C 27 55.554688 27.449219 56 28 56 C 28.550781 56 29 55.554688 29 55 L 29 53 C 29 52.445313 28.550781 52 28 52 Z M 33 52 C 32.449219 52 32 52.445313 32 53 L 32 55 C 32 55.554688 32.449219 56 33 56 C 33.550781 56 34 55.554688 34 55 L 34 53 C 34 52.445313 33.550781 52 33 52 Z M 38 52 C 37.449219 52 37 52.445313 37 53 L 37 55 C 37 55.554688 37.449219 56 38 56 C 38.550781 56 39 55.554688 39 55 L 39 53 C 39 52.445313 38.550781 52 38 52 Z M 43 52 C 42.449219 52 42 52.445313 42 53 L 42 55 C 42 55.554688 42.449219 56 43 56 C 43.550781 56 44 55.554688 44 55 L 44 53 C 44 52.445313 43.550781 52 43 52 Z M 48 52 C 47.449219 52 47 52.445313 47 53 L 47 55 C 47 55.554688 47.449219 56 48 56 C 48.550781 56 49 55.554688 49 55 L 49 53 C 49 52.445313 48.550781 52 48 52 Z "></path>
	</g>
</svg>