<svg xmlns="http://www.w3.org/2000/svg" xmlns:xlink="http://www.w3.org/1999/xlink" viewBox="0 0 40 40" version="1.1">
    <g id="surface1">
        <path style=" fill:#98CCFD;" d="M 12.726563 8.335938 L 15.597656 7.617188 L 16.445313 12.71875 L 15.222656 13.328125 Z "></path>
        <path style=" fill:#4788C7;" d="M 15.191406 8.234375 L 15.894531 12.4375 L 15.449219 12.65625 L 13.453125 8.667969 L 15.191406 8.234375 M 16 7 L 12 8 L 15 14 L 17 13 Z "></path>
        <path style=" fill:#98CCFD;" d="M 7.617188 15.597656 L 8.335938 12.726563 L 13.328125 15.222656 L 12.71875 16.445313 Z "></path>
        <path style=" fill:#4788C7;" d="M 8.667969 13.453125 L 12.660156 15.445313 L 12.4375 15.890625 L 8.234375 15.191406 L 8.667969 13.453125 M 8 12 L 7 16 L 13 17 L 14 15 Z "></path>
        <path style=" fill:#DFF0FE;" d="M 8.554688 38.5 C 6.660156 38.5 4.890625 37.769531 3.558594 36.441406 C 0.804688 33.6875 0.804688 29.203125 3.558594 26.449219 L 8.449219 21.558594 C 9.777344 20.230469 11.554688 19.5 13.445313 19.5 C 14.46875 19.5 15.480469 19.726563 16.410156 20.15625 L 14.027344 22.539063 C 13.839844 22.511719 13.65625 22.5 13.476563 22.5 C 12.382813 22.5 11.363281 22.917969 10.601563 23.679688 L 5.710938 28.570313 C 4.949219 29.332031 4.527344 30.351563 4.527344 31.445313 C 4.527344 32.535156 4.949219 33.554688 5.710938 34.320313 C 6.472656 35.082031 7.492188 35.5 8.585938 35.5 C 9.675781 35.5 10.695313 35.082031 11.457031 34.320313 L 16.347656 29.429688 C 17.109375 28.667969 17.53125 27.648438 17.53125 26.554688 C 17.53125 26.347656 17.511719 26.132813 17.472656 25.90625 L 19.824219 23.550781 C 21.085938 26.230469 20.554688 29.4375 18.441406 31.550781 L 13.550781 36.441406 C 12.222656 37.769531 10.449219 38.5 8.554688 38.5 Z "></path>
        <path style=" fill:#4788C7;" d="M 13.445313 20 C 14.148438 20 14.851563 20.113281 15.519531 20.339844 L 13.839844 22.015625 C 13.71875 22.003906 13.597656 22 13.476563 22 C 12.25 22 11.105469 22.472656 10.246094 23.328125 L 5.359375 28.21875 C 4.5 29.074219 4.03125 30.21875 4.03125 31.445313 C 4.03125 32.671875 4.5 33.816406 5.359375 34.671875 C 6.214844 35.527344 7.359375 36 8.585938 36 C 9.808594 36 10.957031 35.527344 11.8125 34.671875 L 16.703125 29.78125 C 17.558594 28.925781 18.03125 27.78125 18.03125 26.554688 C 18.03125 26.398438 18.019531 26.242188 18.003906 26.082031 L 19.648438 24.4375 C 20.445313 26.773438 19.878906 29.40625 18.085938 31.195313 L 13.195313 36.085938 C 11.964844 37.320313 10.3125 38 8.554688 38 C 6.796875 38 5.148438 37.320313 3.914063 36.085938 C 2.679688 34.851563 2 33.203125 2 31.445313 C 2 29.6875 2.679688 28.035156 3.914063 26.804688 L 8.804688 21.914063 C 10.035156 20.679688 11.6875 20 13.445313 20 M 13.445313 19 C 11.507813 19 9.566406 19.734375 8.097656 21.207031 L 3.207031 26.097656 C 0.265625 29.039063 0.265625 33.851563 3.207031 36.792969 C 4.675781 38.265625 6.617188 39 8.554688 39 C 10.492188 39 12.433594 38.265625 13.902344 36.792969 L 18.792969 31.902344 C 21.273438 29.425781 21.65625 25.617188 19.953125 22.71875 L 16.929688 25.742188 C 16.988281 26.003906 17.03125 26.277344 17.03125 26.554688 C 17.03125 27.511719 16.664063 28.40625 15.996094 29.074219 L 11.105469 33.964844 C 10.4375 34.632813 9.542969 35 8.585938 35 C 7.628906 35 6.730469 34.632813 6.066406 33.964844 C 5.398438 33.296875 5.03125 32.402344 5.03125 31.445313 C 5.03125 30.488281 5.398438 29.59375 6.066406 28.925781 L 10.953125 24.035156 C 11.621094 23.367188 12.515625 23 13.476563 23 C 13.722656 23 13.964844 23.027344 14.199219 23.074219 L 17.246094 20.027344 C 16.074219 19.347656 14.761719 19 13.445313 19 Z "></path>
        <path style=" fill:#DFF0FE;" d="M 26.554688 20.402344 C 25.542969 20.402344 24.539063 20.183594 23.617188 19.761719 L 26.015625 17.363281 C 26.207031 17.390625 26.398438 17.40625 26.585938 17.40625 C 27.675781 17.40625 28.695313 16.984375 29.457031 16.222656 L 34.316406 11.433594 C 35.078125 10.667969 35.5 9.648438 35.5 8.554688 C 35.5 7.464844 35.078125 6.441406 34.316406 5.679688 C 33.558594 4.917969 32.535156 4.5 31.445313 4.5 C 30.351563 4.5 29.332031 4.917969 28.570313 5.679688 L 23.714844 10.472656 C 22.949219 11.238281 22.527344 12.257813 22.527344 13.347656 C 22.527344 13.550781 22.546875 13.761719 22.585938 13.980469 L 20.1875 16.378906 C 18.910156 13.695313 19.4375 10.476563 21.558594 8.351563 L 26.417969 3.5625 C 27.746094 2.230469 29.523438 1.5 31.414063 1.5 C 33.308594 1.5 35.082031 2.230469 36.410156 3.558594 C 37.738281 4.886719 38.472656 6.660156 38.472656 8.554688 C 38.472656 10.445313 37.738281 12.222656 36.410156 13.550781 L 31.550781 18.339844 C 30.222656 19.671875 28.445313 20.402344 26.554688 20.402344 Z "></path>
        <path style=" fill:#4788C7;" d="M 31.414063 2 C 33.175781 2 34.824219 2.679688 36.058594 3.914063 C 37.289063 5.148438 37.96875 6.796875 37.96875 8.554688 C 37.96875 10.3125 37.289063 11.960938 36.0625 13.191406 L 31.195313 17.988281 C 29.960938 19.222656 28.3125 19.902344 26.554688 19.902344 C 25.859375 19.902344 25.167969 19.789063 24.507813 19.574219 L 26.195313 17.886719 C 26.328125 17.898438 26.457031 17.902344 26.585938 17.902344 C 27.808594 17.902344 28.953125 17.433594 29.808594 16.578125 L 34.671875 11.78125 C 35.527344 10.925781 36 9.78125 36 8.554688 C 36 7.328125 35.527344 6.183594 34.671875 5.328125 C 33.816406 4.472656 32.671875 4 31.445313 4 C 30.21875 4 29.074219 4.472656 28.222656 5.324219 L 23.359375 10.121094 C 22.503906 10.976563 22.03125 12.125 22.03125 13.347656 C 22.03125 13.496094 22.039063 13.648438 22.054688 13.800781 L 20.363281 15.492188 C 19.550781 13.152344 20.113281 10.507813 21.910156 8.710938 L 26.773438 3.914063 C 28.007813 2.679688 29.65625 2 31.414063 2 M 31.414063 1 C 29.476563 1 27.535156 1.734375 26.066406 3.207031 L 21.207031 8 C 18.71875 10.488281 18.34375 14.308594 20.0625 17.210938 L 23.125 14.144531 C 23.066406 13.886719 23.027344 13.621094 23.027344 13.347656 C 23.027344 12.390625 23.394531 11.496094 24.0625 10.828125 L 28.925781 6.035156 C 29.59375 5.367188 30.488281 5 31.445313 5 C 32.402344 5 33.296875 5.367188 33.964844 6.035156 C 34.632813 6.703125 35 7.597656 35 8.554688 C 35 9.511719 34.632813 10.40625 33.964844 11.074219 L 29.105469 15.867188 C 28.4375 16.535156 27.542969 16.902344 26.585938 16.902344 C 26.332031 16.902344 26.085938 16.875 25.84375 16.824219 L 22.777344 19.890625 C 23.941406 20.558594 25.246094 20.902344 26.554688 20.902344 C 28.492188 20.902344 30.433594 20.167969 31.902344 18.695313 L 36.765625 13.902344 C 39.707031 10.960938 39.707031 6.148438 36.765625 3.207031 C 35.292969 1.734375 33.355469 1 31.414063 1 Z "></path>
        <path style=" fill:#98CCFD;" d="M 26.65625 24.761719 L 27.269531 23.539063 L 32.367188 24.390625 L 31.652344 27.257813 Z "></path>
        <path style=" fill:#4788C7;" d="M 27.550781 24.09375 L 31.753906 24.792969 L 31.316406 26.535156 L 27.324219 24.539063 L 27.550781 24.09375 M 26.984375 22.984375 L 25.984375 24.984375 L 31.984375 27.984375 L 32.984375 23.984375 Z "></path>
        <path style=" fill:#98CCFD;" d="M 23.539063 27.269531 L 24.761719 26.65625 L 27.261719 31.652344 L 24.390625 32.367188 Z "></path>
        <path style=" fill:#4788C7;" d="M 24.539063 27.328125 L 26.53125 31.316406 L 24.792969 31.753906 L 24.09375 27.550781 L 24.539063 27.328125 M 24.984375 25.984375 L 22.984375 26.984375 L 23.984375 32.984375 L 27.984375 31.984375 Z "></path>
    </g>
</svg>