<svg xmlns="http://www.w3.org/2000/svg" xmlns:xlink="http://www.w3.org/1999/xlink" viewBox="0 0 64 64" version="1.1">
	<g id="surface1">
		<path style=" " d="M 21.65625 4 C 20.320313 4 19.066406 4.519531 18.121094 5.464844 L 9.464844 14.121094 C 8.519531 15.066406 8 16.320313 8 17.65625 L 8 57 C 8 58.652344 9.347656 60 11 60 L 51 60 C 52.652344 60 54 58.652344 54 57 L 54 7 C 54 5.347656 52.652344 4 51 4 Z M 22 6 L 51 6 C 51.550781 6 52 6.449219 52 7 L 52 57 C 52 57.550781 51.550781 58 51 58 L 11 58 C 10.449219 58 10 57.550781 10 57 L 10 18 L 19 18 C 20.652344 18 22 16.652344 22 15 Z M 20 6.5 L 20 15 C 20 15.550781 19.550781 16 19 16 L 10.5 16 C 10.605469 15.835938 10.734375 15.679688 10.878906 15.535156 L 19.535156 6.878906 C 19.679688 6.738281 19.835938 6.613281 20 6.5 Z M 20 24 C 17.792969 24 16 25.792969 16 28 C 16 30.207031 17.792969 32 20 32 C 22.207031 32 24 30.207031 24 28 C 24 25.792969 22.207031 24 20 24 Z M 20 25.75 C 21.242188 25.75 22.25 26.757813 22.25 28 C 22.25 29.242188 21.242188 30.25 20 30.25 C 18.757813 30.25 17.75 29.242188 17.75 28 C 17.75 26.757813 18.757813 25.75 20 25.75 Z M 37 30.414063 C 36.488281 30.414063 35.976563 30.609375 35.585938 31 L 29 37.585938 L 26.414063 35 C 25.632813 34.21875 24.363281 34.21875 23.585938 35 L 14.585938 44 L 13.042969 44 C 12.417969 44 12 44.398438 12 45 C 12 45.601563 12.523438 46 13.042969 46 L 48.980469 46 C 49.5 46 50.023438 45.601563 50.023438 45 C 50.023438 44.398438 49.5 44 48.980469 44 L 25.414063 44 L 37 32.414063 L 45.292969 40.707031 C 45.683594 41.097656 46.316406 41.097656 46.707031 40.707031 C 47.097656 40.316406 47.097656 39.683594 46.707031 39.292969 L 38.414063 31 C 38.023438 30.609375 37.511719 30.414063 37 30.414063 Z M 25 36.414063 L 27.585938 39 L 22.585938 44 L 17.414063 44 Z M 13 52 C 12.449219 52 12 52.449219 12 53 L 12 55 C 12 55.550781 12.449219 56 13 56 C 13.550781 56 14 55.550781 14 55 L 14 53 C 14 52.449219 13.550781 52 13 52 Z M 18 52 C 17.449219 52 17 52.449219 17 53 L 17 55 C 17 55.550781 17.449219 56 18 56 C 18.550781 56 19 55.550781 19 55 L 19 53 C 19 52.449219 18.550781 52 18 52 Z M 23 52 C 22.449219 52 22 52.449219 22 53 L 22 55 C 22 55.550781 22.449219 56 23 56 C 23.550781 56 24 55.550781 24 55 L 24 53 C 24 52.449219 23.550781 52 23 52 Z M 28 52 C 27.449219 52 27 52.449219 27 53 L 27 55 C 27 55.550781 27.449219 56 28 56 C 28.550781 56 29 55.550781 29 55 L 29 53 C 29 52.449219 28.550781 52 28 52 Z M 33 52 C 32.449219 52 32 52.449219 32 53 L 32 55 C 32 55.550781 32.449219 56 33 56 C 33.550781 56 34 55.550781 34 55 L 34 53 C 34 52.449219 33.550781 52 33 52 Z M 38 52 C 37.449219 52 37 52.449219 37 53 L 37 55 C 37 55.550781 37.449219 56 38 56 C 38.550781 56 39 55.550781 39 55 L 39 53 C 39 52.449219 38.550781 52 38 52 Z M 43 52 C 42.449219 52 42 52.449219 42 53 L 42 55 C 42 55.550781 42.449219 56 43 56 C 43.550781 56 44 55.550781 44 55 L 44 53 C 44 52.449219 43.550781 52 43 52 Z M 48 52 C 47.449219 52 47 52.449219 47 53 L 47 55 C 47 55.550781 47.449219 56 48 56 C 48.550781 56 49 55.550781 49 55 L 49 53 C 49 52.449219 48.550781 52 48 52 Z "></path>
	</g>
</svg>