<svg xmlns="http://www.w3.org/2000/svg" xmlns:xlink="http://www.w3.org/1999/xlink" viewBox="0 0 64 64" version="1.1">
    <g id="surface1">
        <path style=" " d="M 26 2 C 23.796875 2 20.648438 2.6875 18.691406 4.007813 C 14.96875 4.140625 12.417969 6.757813 12.003906 10.902344 C 11.746094 13.460938 11.980469 15.292969 12.136719 16.503906 C 12.191406 16.925781 12.25 17.402344 12.230469 17.542969 C 12.199219 17.726563 12.167969 17.914063 12.140625 18.105469 C 11.976563 18.113281 11.832031 18.136719 11.703125 18.171875 C 10.804688 18.414063 10.171875 19.214844 9.921875 20.433594 C 9.722656 21.410156 9.785156 22.597656 10.101563 23.777344 C 10.636719 25.773438 11.757813 27.273438 12.984375 27.734375 C 13.617188 29.671875 14.546875 31.597656 15.703125 33.332031 L 6.484375 38.671875 C 2.484375 40.984375 0 45.296875 0 49.917969 L 0 57 C 0 58.652344 1.347656 60 3 60 L 49 60 C 50.652344 60 52 58.652344 52 57 L 52 54 L 59 54 C 60.652344 54 62 52.652344 62 51 L 62 47.4375 C 62 43.691406 60.121094 40.242188 56.976563 38.203125 L 46.871094 31.667969 C 48.003906 30.210938 48.957031 28.46875 49.578125 26.609375 C 50.53125 26.195313 51.363281 25.058594 51.769531 23.527344 C 52.015625 22.609375 52.066406 21.683594 51.90625 20.917969 C 51.707031 19.925781 51.152344 19.238281 50.394531 19.035156 C 50.34375 19.019531 50.289063 19.007813 50.230469 19 C 50.128906 18.34375 49.957031 17.699219 49.683594 16.917969 C 49.863281 16.960938 50.054688 17.023438 50.222656 17.09375 C 50.570313 17.238281 50.964844 17.175781 51.25 16.9375 C 51.535156 16.699219 51.664063 16.320313 51.585938 15.957031 C 50.355469 10.328125 46.179688 6.96875 40.414063 6.96875 L 39.671875 6.96875 C 39.304688 6.96875 38.898438 6.996094 38.480469 7.046875 C 35.816406 3.8125 31.839844 2 27 2 Z M 26 4 L 27 4 C 33.070313 4 37.453125 7.101563 39.25 12.582031 C 38.5625 12.503906 37.847656 12.585938 37.355469 13.0625 C 36.972656 13.425781 36.613281 14.125 37.066406 15.359375 C 37.683594 17.035156 37.90625 18.027344 37.96875 19.433594 C 37.988281 19.792969 38.195313 20.113281 38.511719 20.277344 C 38.832031 20.4375 39.214844 20.417969 39.515625 20.222656 C 39.675781 20.121094 39.761719 20.105469 39.78125 20.105469 C 39.824219 20.125 40.011719 20.296875 40.121094 20.832031 C 40.257813 21.503906 40.199219 22.386719 39.96875 23.257813 C 39.472656 25.101563 38.53125 25.878906 38.234375 25.878906 C 37.792969 25.878906 37.402344 26.171875 37.277344 26.59375 C 35.589844 32.265625 31.175781 38 26 38 C 20.824219 38 16.410156 32.261719 14.726563 26.59375 C 14.597656 26.171875 14.210938 25.878906 13.765625 25.878906 C 13.472656 25.878906 12.527344 25.101563 12.035156 23.257813 C 11.800781 22.386719 11.746094 21.503906 11.882813 20.832031 C 11.996094 20.273438 12.191406 20.109375 12.214844 20.105469 C 12.21875 20.105469 12.304688 20.105469 12.488281 20.222656 C 12.785156 20.417969 13.167969 20.4375 13.488281 20.277344 C 13.804688 20.113281 14.015625 19.792969 14.03125 19.433594 C 14.054688 18.910156 14.113281 18.390625 14.203125 17.890625 C 14.277344 17.460938 14.214844 16.980469 14.121094 16.25 C 13.976563 15.128906 13.761719 13.433594 13.996094 11.101563 C 14.316406 7.910156 16.1875 6 19.019531 6 C 19.234375 6 19.445313 5.929688 19.621094 5.800781 C 20.988281 4.773438 23.730469 4 26 4 Z M 39.8125 8.96875 L 40.414063 8.96875 C 44.6875 8.96875 47.8125 11.085938 49.1875 14.84375 C 48.738281 14.851563 48.296875 14.964844 47.960938 15.285156 C 47.621094 15.609375 47.296875 16.21875 47.683594 17.269531 C 48.132813 18.496094 48.292969 19.214844 48.34375 20.234375 C 48.359375 20.59375 48.566406 20.914063 48.886719 21.078125 C 49.195313 21.234375 49.566406 21.222656 49.863281 21.035156 C 49.988281 21.320313 50.097656 22.035156 49.839844 23.011719 C 49.53125 24.15625 48.953125 24.730469 48.792969 24.777344 C 48.351563 24.777344 47.960938 25.066406 47.832031 25.488281 C 46.902344 28.617188 44.960938 31.433594 42.765625 32.832031 C 42.300781 33.128906 42.164063 33.746094 42.464844 34.214844 C 42.652344 34.511719 42.976563 34.675781 43.308594 34.675781 C 43.492188 34.675781 43.675781 34.625 43.84375 34.515625 C 44.433594 34.140625 45.003906 33.679688 45.546875 33.152344 C 45.589844 33.191406 45.617188 33.238281 45.667969 33.265625 L 55.890625 39.882813 C 58.464844 41.550781 60 44.375 60 47.4375 L 60 51 C 60 51.550781 59.550781 52 59 52 L 52 52 L 52 50 C 52.554688 50 53 49.550781 53 49 L 53 47 C 53 46.449219 52.554688 46 52 46 C 51.789063 46 51.605469 46.082031 51.441406 46.191406 C 50.503906 43.066406 48.40625 40.34375 45.515625 38.667969 L 36.296875 33.328125 C 37.453125 31.597656 38.378906 29.671875 39.015625 27.734375 C 40.238281 27.273438 41.363281 25.773438 41.894531 23.777344 C 42.210938 22.597656 42.277344 21.410156 42.078125 20.433594 C 41.828125 19.214844 41.195313 18.414063 40.296875 18.171875 C 40.171875 18.140625 40.023438 18.113281 39.859375 18.105469 C 39.71875 17.035156 39.449219 16.035156 38.941406 14.667969 C 38.929688 14.628906 38.917969 14.59375 38.90625 14.5625 C 39.257813 14.589844 39.824219 14.734375 40.285156 14.921875 C 40.632813 15.066406 41.027344 15.007813 41.3125 14.765625 C 41.59375 14.527344 41.726563 14.148438 41.644531 13.785156 C 41.253906 11.996094 40.632813 10.386719 39.8125 8.96875 Z M 20.171875 10.125 C 19.582031 10.179688 19.027344 10.492188 18.683594 11.015625 L 17.078125 13.449219 C 16.773438 13.910156 16.902344 14.53125 17.363281 14.835938 C 17.53125 14.949219 17.722656 15 17.910156 15 C 18.238281 15 18.554688 14.84375 18.75 14.550781 L 20.355469 12.117188 L 21.917969 12.878906 C 24.765625 14.265625 27.941406 15 31.109375 15 L 33.667969 15 C 34.222656 15 34.667969 14.550781 34.667969 14 C 34.667969 13.449219 34.222656 13 33.667969 13 L 31.109375 13 C 28.246094 13 25.367188 12.335938 22.792969 11.078125 L 21.230469 10.316406 C 20.890625 10.152344 20.523438 10.09375 20.171875 10.125 Z M 16.90625 34.941406 C 19.339844 37.910156 22.503906 40 26 40 C 29.496094 40 32.65625 37.910156 35.089844 34.945313 L 44.511719 40.398438 C 47.898438 42.359375 50 46.007813 50 49.921875 L 50 57 C 50 57.550781 49.550781 58 49 58 L 3 58 C 2.449219 58 2 57.550781 2 57 L 2 49.917969 C 2 46.007813 4.105469 42.359375 7.488281 40.398438 Z M 18.0625 40 C 17.675781 39.976563 17.292969 40.183594 17.105469 40.550781 C 16.859375 41.046875 17.058594 41.648438 17.550781 41.894531 L 25.550781 45.894531 C 25.695313 45.964844 25.847656 46 26 46 C 26.152344 46 26.308594 45.964844 26.449219 45.894531 L 34.449219 41.894531 C 34.941406 41.648438 35.140625 41.046875 34.894531 40.550781 C 34.648438 40.058594 34.046875 39.859375 33.550781 40.105469 L 26 43.882813 L 18.449219 40.105469 C 18.324219 40.042969 18.195313 40.011719 18.0625 40 Z M 57 46 C 56.445313 46 56 46.449219 56 47 L 56 49 C 56 49.550781 56.445313 50 57 50 C 57.554688 50 58 49.550781 58 49 L 58 47 C 58 46.449219 57.554688 46 57 46 Z M 6 52 C 5.445313 52 5 52.449219 5 53 L 5 55 C 5 55.550781 5.445313 56 6 56 C 6.554688 56 7 55.550781 7 55 L 7 53 C 7 52.449219 6.554688 52 6 52 Z M 11 52 C 10.445313 52 10 52.449219 10 53 L 10 55 C 10 55.550781 10.445313 56 11 56 C 11.554688 56 12 55.550781 12 55 L 12 53 C 12 52.449219 11.554688 52 11 52 Z M 16 52 C 15.445313 52 15 52.449219 15 53 L 15 55 C 15 55.550781 15.445313 56 16 56 C 16.554688 56 17 55.550781 17 55 L 17 53 C 17 52.449219 16.554688 52 16 52 Z M 21 52 C 20.445313 52 20 52.449219 20 53 L 20 55 C 20 55.550781 20.445313 56 21 56 C 21.554688 56 22 55.550781 22 55 L 22 53 C 22 52.449219 21.554688 52 21 52 Z M 26 52 C 25.445313 52 25 52.449219 25 53 L 25 55 C 25 55.550781 25.445313 56 26 56 C 26.554688 56 27 55.550781 27 55 L 27 53 C 27 52.449219 26.554688 52 26 52 Z M 31 52 C 30.445313 52 30 52.449219 30 53 L 30 55 C 30 55.550781 30.445313 56 31 56 C 31.554688 56 32 55.550781 32 55 L 32 53 C 32 52.449219 31.554688 52 31 52 Z M 36 52 C 35.445313 52 35 52.449219 35 53 L 35 55 C 35 55.550781 35.445313 56 36 56 C 36.554688 56 37 55.550781 37 55 L 37 53 C 37 52.449219 36.554688 52 36 52 Z M 41 52 C 40.445313 52 40 52.449219 40 53 L 40 55 C 40 55.550781 40.445313 56 41 56 C 41.554688 56 42 55.550781 42 55 L 42 53 C 42 52.449219 41.554688 52 41 52 Z M 46 52 C 45.445313 52 45 52.449219 45 53 L 45 55 C 45 55.550781 45.445313 56 46 56 C 46.554688 56 47 55.550781 47 55 L 47 53 C 47 52.449219 46.554688 52 46 52 Z "></path>
    </g>
</svg>