<svg xmlns="http://www.w3.org/2000/svg" xmlns:xlink="http://www.w3.org/1999/xlink" viewBox="0 0 24 24" version="1.1">
	<g id="surface1">
		<path style=" " d="M 12 2 C 10.40625 2 9.097656 2.863281 8.1875 4.03125 C 8.121094 4.027344 8.074219 4 8 4 C 5.800781 4 4 5.800781 4 8 C 4 10.199219 5.800781 12 8 12 L 17 12 C 18.644531 12 20 10.644531 20 9 C 20 7.355469 18.644531 6 17 6 L 16.78125 6 C 16.300781 3.742188 14.394531 2 12 2 Z M 12 4 C 13.667969 4 15 5.332031 15 7 L 15 8 L 17 8 C 17.566406 8 18 8.433594 18 9 C 18 9.566406 17.566406 10 17 10 L 8 10 C 6.882813 10 6 9.117188 6 8 C 6 6.882813 6.882813 6 8 6 C 8.09375 6 8.203125 6.007813 8.34375 6.03125 L 9.0625 6.15625 L 9.40625 5.53125 C 9.921875 4.609375 10.875 4 12 4 Z M 4 14 C 2.894531 14 2 14.894531 2 16 L 2 20 C 2 21.105469 2.894531 22 4 22 L 20 22 C 21.105469 22 22 21.105469 22 20 L 22 16 C 22 14.894531 21.105469 14 20 14 Z M 6 17 C 6.550781 17 7 17.449219 7 18 C 7 18.550781 6.550781 19 6 19 C 5.449219 19 5 18.550781 5 18 C 5 17.449219 5.449219 17 6 17 Z M 9 17 L 19 17 L 19 19 L 9 19 Z "></path>
	</g>
</svg>