<?xml version="1.0" encoding="UTF-8"?>
<svg xmlns="http://www.w3.org/2000/svg" xmlns:xlink="http://www.w3.org/1999/xlink" viewBox="0 0 64 64" version="1.1" width="64px" height="64px">
<g id="surface1">
<path style=" " d="M 35.136719 2.386719 C 34.917969 2.378906 34.699219 2.390625 34.480469 2.429688 L 5.304688 7.578125 C 3.390625 7.917969 2 9.574219 2 11.515625 L 2 50.484375 C 2 52.429688 3.390625 54.085938 5.304688 54.421875 L 34.480469 59.570313 C 34.652344 59.601563 34.828125 59.613281 35 59.613281 C 35.703125 59.613281 36.382813 59.371094 36.925781 58.914063 C 37.609375 58.34375 38 57.503906 38 56.613281 L 38 52 L 57 52 C 58.652344 52 60 50.652344 60 49 L 60 13 C 60 11.347656 58.652344 10 57 10 L 38 10 L 38 5.382813 C 38 4.496094 37.609375 3.65625 36.925781 3.085938 C 36.417969 2.65625 35.789063 2.414063 35.136719 2.386719 Z M 35.105469 4.390625 C 35.359375 4.414063 35.542969 4.535156 35.640625 4.617188 C 35.777344 4.730469 36 4.980469 36 5.382813 L 36 56.613281 C 36 57.019531 35.777344 57.269531 35.640625 57.382813 C 35.507813 57.496094 35.226563 57.667969 34.828125 57.601563 L 5.652344 52.453125 C 4.695313 52.285156 4 51.457031 4 50.484375 L 4 11.515625 C 4 10.542969 4.695313 9.714844 5.652344 9.546875 L 34.824219 4.398438 C 34.925781 4.382813 35.019531 4.378906 35.105469 4.390625 Z M 38 12 L 57 12 C 57.550781 12 58 12.449219 58 13 L 58 49 C 58 49.550781 57.550781 50 57 50 L 38 50 L 38 45.949219 L 52.949219 45.949219 C 53.5 45.949219 53.949219 45.554688 53.949219 45 C 53.949219 44.445313 53.5 44 52.949219 44 L 50 44 L 50 41 C 50 40.445313 49.550781 40 49 40 L 46 40 L 46 37 C 46 36.445313 45.550781 36 45 36 L 41 36 C 40.449219 36 40 36.445313 40 37 L 40 39 L 38 39 L 38 32.46875 C 39.46875 33.449219 41.203125 34 43 34 C 47.960938 34 52 29.964844 52 25 C 52 20.035156 47.960938 16 43 16 C 41.1875 16 39.464844 16.535156 38 17.519531 Z M 42 18.078125 L 42 24.832031 C 42 25.027344 42.070313 25.203125 42.171875 25.359375 C 42.21875 25.492188 42.289063 25.617188 42.394531 25.726563 L 47.234375 30.5625 C 46.054688 31.460938 44.589844 32 43 32 C 41.113281 32 39.316406 31.230469 38 29.886719 L 38 20.105469 C 39.089844 18.992188 40.484375 18.292969 42 18.078125 Z M 44 18.078125 C 47.386719 18.566406 50 21.480469 50 25 C 50 26.546875 49.488281 27.976563 48.636719 29.136719 L 44 24.5 Z M 15 20 C 14.449219 20 14 20.445313 14 21 L 14 41 C 14 41.554688 14.449219 42 15 42 C 15.550781 42 16 41.554688 16 41 L 16 34 L 21 34 C 23.757813 34 26 31.757813 26 29 L 26 25 C 26 22.242188 23.757813 20 21 20 Z M 16 22 L 21 22 C 22.652344 22 24 23.347656 24 25 L 24 29 C 24 30.652344 22.652344 32 21 32 L 16 32 Z M 42 38 L 44 38 L 44 44 L 42 44 Z M 38 41 L 40 41 L 40 44 L 38 44 Z M 46 42 L 48 42 L 48 44 L 46 44 Z "/>
</g>
</svg>
