<svg xmlns="http://www.w3.org/2000/svg" xmlns:xlink="http://www.w3.org/1999/xlink" viewBox="0 0 40 40" version="1.1">
    <g id="surface1">
        <path style=" fill:#98CCFD;" d="M 20 38.5 C 9.800781 38.5 1.5 30.199219 1.5 20 C 1.5 9.800781 9.800781 1.5 20 1.5 C 30.199219 1.5 38.5 9.800781 38.5 20 C 38.5 30.199219 30.199219 38.5 20 38.5 Z M 20 4.5 C 11.453125 4.5 4.5 11.453125 4.5 20 C 4.5 28.546875 11.453125 35.5 20 35.5 C 28.546875 35.5 35.5 28.546875 35.5 20 C 35.5 11.453125 28.546875 4.5 20 4.5 Z "></path>
        <path style=" fill:#4788C7;" d="M 20 2 C 29.925781 2 38 10.074219 38 20 C 38 29.925781 29.925781 38 20 38 C 10.074219 38 2 29.925781 2 20 C 2 10.074219 10.074219 2 20 2 M 20 36 C 28.820313 36 36 28.820313 36 20 C 36 11.179688 28.820313 4 20 4 C 11.179688 4 4 11.179688 4 20 C 4 28.820313 11.179688 36 20 36 M 20 1 C 9.507813 1 1 9.507813 1 20 C 1 30.492188 9.507813 39 20 39 C 30.492188 39 39 30.492188 39 20 C 39 9.507813 30.492188 1 20 1 Z M 20 35 C 11.714844 35 5 28.285156 5 20 C 5 11.714844 11.714844 5 20 5 C 28.285156 5 35 11.714844 35 20 C 35 28.285156 28.285156 35 20 35 Z "></path>
        <path style=" fill:#FFFFFF;" d="M 1.6875 15 C 2.175781 13.214844 2.910156 11.535156 3.867188 10 L 8.84375 10 C 11.589844 6.9375 15.5625 5 20 5 C 28.285156 5 35 11.714844 35 20 C 35 28.285156 28.285156 35 20 35 C 11.714844 35 5 28.285156 5 20 C 5 18.242188 5.316406 16.566406 5.871094 15 Z "></path>
        <path style=" fill:#98CCFD;" d="M 3.5 12.5 L 3.5 4.207031 L 11.792969 12.5 Z "></path>
        <path style=" fill:#4788C7;" d="M 4 5.414063 L 10.585938 12 L 4 12 L 4 5.414063 M 3 3 L 3 13 L 13 13 Z "></path>
        <path style="fill:none;stroke-width:2;stroke-linecap:butt;stroke-linejoin:miter;stroke:#98CCFD;stroke-opacity:1;stroke-miterlimit:10;" d="M 9.503906 6.625 C 8.539063 7.382813 7.660156 8.242188 6.882813 9.1875 "></path>
        <path style="fill:none;stroke-width:2;stroke-linecap:round;stroke-linejoin:miter;stroke:#4788C7;stroke-opacity:1;stroke-miterlimit:10;" d="M 27 10 L 20 20 L 26 26 "></path>
        <path style=" fill:#4788C7;" d="M 21.5 20 C 21.5 20.828125 20.828125 21.5 20 21.5 C 19.171875 21.5 18.5 20.828125 18.5 20 C 18.5 19.171875 19.171875 18.5 20 18.5 C 20.828125 18.5 21.5 19.171875 21.5 20 Z "></path>
        <path style=" fill:#B6DCFE;" d="M 21 7 C 21 7.550781 20.550781 8 20 8 C 19.449219 8 19 7.550781 19 7 C 19 6.449219 19.449219 6 20 6 C 20.550781 6 21 6.449219 21 7 Z "></path>
        <path style=" fill:#B6DCFE;" d="M 21 33 C 21 33.550781 20.550781 34 20 34 C 19.449219 34 19 33.550781 19 33 C 19 32.449219 19.449219 32 20 32 C 20.550781 32 21 32.449219 21 33 Z "></path>
        <path style=" fill:#B6DCFE;" d="M 34 20 C 34 20.550781 33.550781 21 33 21 C 32.449219 21 32 20.550781 32 20 C 32 19.449219 32.449219 19 33 19 C 33.550781 19 34 19.449219 34 20 Z "></path>
        <path style=" fill:#B6DCFE;" d="M 8 20 C 8 20.550781 7.550781 21 7 21 C 6.449219 21 6 20.550781 6 20 C 6 19.449219 6.449219 19 7 19 C 7.550781 19 8 19.449219 8 20 Z "></path>
    </g>
</svg>