<svg xmlns="http://www.w3.org/2000/svg" xmlns:xlink="http://www.w3.org/1999/xlink" viewBox="0 0 40 40" version="1.1">
    <g id="surface1">
        <path style=" fill:#98CCFD;" d="M 3.5 38.5 C 2.964844 38.5 2.464844 38.292969 2.085938 37.914063 C 1.707031 37.539063 1.5 37.035156 1.5 36.5 C 1.5 35.96875 1.707031 35.464844 2.085938 35.085938 L 20.316406 17.703125 L 22.300781 19.691406 L 4.902344 37.921875 C 4.535156 38.292969 4.03125 38.5 3.5 38.5 Z "></path>
        <path style=" fill:#4788C7;" d="M 20.308594 18.40625 L 21.601563 19.699219 L 4.558594 37.5625 C 4.277344 37.84375 3.898438 38 3.5 38 C 3.097656 38 2.722656 37.84375 2.4375 37.5625 C 1.855469 36.976563 1.855469 36.027344 2.421875 35.457031 L 20.308594 18.40625 M 20.328125 17.007813 L 1.730469 34.734375 C 0.757813 35.710938 0.757813 37.292969 1.730469 38.269531 C 2.21875 38.757813 2.859375 39 3.5 39 C 4.140625 39 4.777344 38.757813 5.265625 38.269531 L 23 19.683594 Z "></path>
        <path style=" fill:#DFF0FE;" d="M 26 26.5 C 19.105469 26.5 13.5 20.894531 13.5 14 C 13.5 7.105469 19.105469 1.5 26 1.5 C 32.894531 1.5 38.5 7.105469 38.5 14 C 38.5 20.894531 32.894531 26.5 26 26.5 Z "></path>
        <path style=" fill:#4788C7;" d="M 26 2 C 32.617188 2 38 7.382813 38 14 C 38 20.617188 32.617188 26 26 26 C 19.382813 26 14 20.617188 14 14 C 14 7.382813 19.382813 2 26 2 M 26 1 C 18.820313 1 13 6.820313 13 14 C 13 21.179688 18.820313 27 26 27 C 33.179688 27 39 21.179688 39 14 C 39 6.820313 33.179688 1 26 1 Z "></path>
    </g>
</svg>