<svg xmlns="http://www.w3.org/2000/svg" xmlns:xlink="http://www.w3.org/1999/xlink" viewBox="0 0 40 40" version="1.1">
    <g id="surface1">
        <path style=" fill:#B6DCFE;" d="M 21 37.5 C 11.351563 37.5 3.5 29.648438 3.5 20 C 3.5 10.351563 11.351563 2.5 21 2.5 C 30.648438 2.5 38.5 10.351563 38.5 20 C 38.5 29.648438 30.648438 37.5 21 37.5 Z M 21 7.5 C 14.105469 7.5 8.5 13.105469 8.5 20 C 8.5 26.894531 14.105469 32.5 21 32.5 C 27.894531 32.5 33.5 26.894531 33.5 20 C 33.5 13.105469 27.894531 7.5 21 7.5 Z "></path>
        <path style=" fill:#4788C7;" d="M 21 3 C 30.375 3 38 10.625 38 20 C 38 29.375 30.375 37 21 37 C 11.625 37 4 29.375 4 20 C 4 10.625 11.625 3 21 3 M 21 33 C 28.167969 33 34 27.167969 34 20 C 34 12.832031 28.167969 7 21 7 C 13.832031 7 8 12.832031 8 20 C 8 27.167969 13.832031 33 21 33 M 21 2 C 11.058594 2 3 10.058594 3 20 C 3 29.941406 11.058594 38 21 38 C 30.941406 38 39 29.941406 39 20 C 39 10.058594 30.941406 2 21 2 Z M 21 32 C 14.371094 32 9 26.628906 9 20 C 9 13.371094 14.371094 8 21 8 C 27.628906 8 33 13.371094 33 20 C 33 26.628906 27.628906 32 21 32 Z "></path>
        <path style=" fill:#DFF0FE;" d="M 34.5 8 C 34.5 11.039063 32.039063 13.5 29 13.5 C 25.960938 13.5 23.5 11.039063 23.5 8 C 23.5 4.960938 25.960938 2.5 29 2.5 C 32.039063 2.5 34.5 4.960938 34.5 8 Z "></path>
        <path style=" fill:#4788C7;" d="M 29 3 C 31.757813 3 34 5.242188 34 8 C 34 10.757813 31.757813 13 29 13 C 26.242188 13 24 10.757813 24 8 C 24 5.242188 26.242188 3 29 3 M 29 2 C 25.6875 2 23 4.6875 23 8 C 23 11.3125 25.6875 14 29 14 C 32.3125 14 35 11.3125 35 8 C 35 4.6875 32.3125 2 29 2 Z "></path>
        <path style=" fill:#DFF0FE;" d="M 35.5 32 C 35.5 35.039063 33.039063 37.5 30 37.5 C 26.960938 37.5 24.5 35.039063 24.5 32 C 24.5 28.960938 26.960938 26.5 30 26.5 C 33.039063 26.5 35.5 28.960938 35.5 32 Z "></path>
        <path style=" fill:#4788C7;" d="M 30 27 C 32.757813 27 35 29.242188 35 32 C 35 34.757813 32.757813 37 30 37 C 27.242188 37 25 34.757813 25 32 C 25 29.242188 27.242188 27 30 27 M 30 26 C 26.6875 26 24 28.6875 24 32 C 24 35.3125 26.6875 38 30 38 C 33.3125 38 36 35.3125 36 32 C 36 28.6875 33.3125 26 30 26 Z "></path>
        <path style=" fill:#DFF0FE;" d="M 12.5 20 C 12.5 23.039063 10.039063 25.5 7 25.5 C 3.960938 25.5 1.5 23.039063 1.5 20 C 1.5 16.960938 3.960938 14.5 7 14.5 C 10.039063 14.5 12.5 16.960938 12.5 20 Z "></path>
        <path style=" fill:#4788C7;" d="M 7 15 C 9.757813 15 12 17.242188 12 20 C 12 22.757813 9.757813 25 7 25 C 4.242188 25 2 22.757813 2 20 C 2 17.242188 4.242188 15 7 15 M 7 14 C 3.6875 14 1 16.6875 1 20 C 1 23.3125 3.6875 26 7 26 C 10.3125 26 13 23.3125 13 20 C 13 16.6875 10.3125 14 7 14 Z "></path>
    </g>
</svg>