<svg xmlns="http://www.w3.org/2000/svg" xmlns:xlink="http://www.w3.org/1999/xlink" viewBox="0 0 64 64" version="1.1">
    <g id="surface1">
        <path style=" " d="M 3 8 C 1.347656 8 0 9.347656 0 11 L 0 52 C 0 54.207031 1.792969 56 4 56 L 58 56 C 60.207031 56 62 54.207031 62 52 L 62 21 C 62 19.347656 60.652344 18 59 18 L 56 18 L 56 17 C 56 15.347656 54.652344 14 53 14 L 27.707031 14 C 26.910156 14 26.164063 13.691406 25.597656 13.132813 L 21.875 9.445313 C 20.929688 8.515625 19.679688 8 18.355469 8 Z M 3 10 L 18.355469 10 C 19.152344 10 19.898438 10.308594 20.464844 10.867188 L 24.1875 14.554688 C 25.132813 15.484375 26.382813 16 27.707031 16 L 53 16 C 53.550781 16 54 16.449219 54 17 L 54 52 C 54 52.617188 54.222656 53.339844 54.632813 54 L 4 54 C 2.898438 54 2 53.101563 2 52 L 2 46 L 43 46 C 43.550781 46 44 45.550781 44 45 C 44 44.449219 43.550781 44 43 44 L 2 44 L 2 11 C 2 10.449219 2.449219 10 3 10 Z M 56 20 L 59 20 C 59.550781 20 60 20.449219 60 21 L 60 52 C 60 53.101563 59.101563 54 58 54 C 56.753906 54 56 52.609375 56 52 Z M 27 22 C 24.242188 22 22 24.242188 22 27 L 22 29 C 22 29.992188 22.300781 30.914063 22.800781 31.691406 C 20.058594 32.886719 17.882813 35.527344 17.28125 38.765625 C 17.179688 39.3125 17.539063 39.832031 18.082031 39.933594 C 18.625 40.035156 19.148438 39.675781 19.25 39.132813 C 19.785156 36.242188 21.863281 33.949219 24.371094 33.234375 C 25.136719 33.710938 26.03125 34 27 34 C 27.96875 34 28.863281 33.710938 29.628906 33.234375 C 32.136719 33.949219 34.214844 36.246094 34.75 39.136719 C 34.839844 39.617188 35.261719 39.953125 35.734375 39.953125 C 35.796875 39.953125 35.855469 39.949219 35.917969 39.9375 C 36.460938 39.835938 36.820313 39.3125 36.71875 38.769531 C 36.117188 35.53125 33.941406 32.886719 31.199219 31.691406 C 31.699219 30.914063 32 29.992188 32 29 L 32 27 C 32 24.242188 29.757813 22 27 22 Z M 27 24 C 28.652344 24 30 25.347656 30 27 L 30 29 C 30 30.652344 28.652344 32 27 32 C 25.347656 32 24 30.652344 24 29 L 24 27 C 24 25.347656 25.347656 24 27 24 Z M 47 44 C 46.449219 44 46 44.449219 46 45 C 46 45.550781 46.449219 46 47 46 L 51 46 C 51.550781 46 52 45.550781 52 45 C 52 44.449219 51.550781 44 51 44 Z M 5 48 C 4.449219 48 4 48.449219 4 49 L 4 51 C 4 51.550781 4.449219 52 5 52 C 5.550781 52 6 51.550781 6 51 L 6 49 C 6 48.449219 5.550781 48 5 48 Z M 10 48 C 9.449219 48 9 48.449219 9 49 L 9 51 C 9 51.550781 9.449219 52 10 52 C 10.550781 52 11 51.550781 11 51 L 11 49 C 11 48.449219 10.550781 48 10 48 Z M 15 48 C 14.449219 48 14 48.449219 14 49 L 14 51 C 14 51.550781 14.449219 52 15 52 C 15.550781 52 16 51.550781 16 51 L 16 49 C 16 48.449219 15.550781 48 15 48 Z M 20 48 C 19.449219 48 19 48.449219 19 49 L 19 51 C 19 51.550781 19.449219 52 20 52 C 20.550781 52 21 51.550781 21 51 L 21 49 C 21 48.449219 20.550781 48 20 48 Z M 25 48 C 24.449219 48 24 48.449219 24 49 L 24 51 C 24 51.550781 24.449219 52 25 52 C 25.550781 52 26 51.550781 26 51 L 26 49 C 26 48.449219 25.550781 48 25 48 Z M 30 48 C 29.449219 48 29 48.449219 29 49 L 29 51 C 29 51.550781 29.449219 52 30 52 C 30.550781 52 31 51.550781 31 51 L 31 49 C 31 48.449219 30.550781 48 30 48 Z M 35 48 C 34.449219 48 34 48.449219 34 49 L 34 51 C 34 51.550781 34.449219 52 35 52 C 35.550781 52 36 51.550781 36 51 L 36 49 C 36 48.449219 35.550781 48 35 48 Z M 40 48 C 39.449219 48 39 48.449219 39 49 L 39 51 C 39 51.550781 39.449219 52 40 52 C 40.550781 52 41 51.550781 41 51 L 41 49 C 41 48.449219 40.550781 48 40 48 Z M 45 48 C 44.449219 48 44 48.449219 44 49 L 44 51 C 44 51.550781 44.449219 52 45 52 C 45.550781 52 46 51.550781 46 51 L 46 49 C 46 48.449219 45.550781 48 45 48 Z M 50 48 C 49.449219 48 49 48.449219 49 49 L 49 51 C 49 51.550781 49.449219 52 50 52 C 50.550781 52 51 51.550781 51 51 L 51 49 C 51 48.449219 50.550781 48 50 48 Z "></path>
    </g>
</svg>