<?xml version="1.0" encoding="UTF-8"?>
<svg xmlns="http://www.w3.org/2000/svg" xmlns:xlink="http://www.w3.org/1999/xlink" viewBox="0 0 64 64" version="1.1" width="64px" height="64px">
<g id="surface1">
<path style=" " d="M 35.136719 2.386719 C 34.917969 2.378906 34.699219 2.390625 34.480469 2.429688 L 5.304688 7.578125 C 3.390625 7.917969 2 9.574219 2 11.515625 L 2 50.484375 C 2 52.429688 3.390625 54.085938 5.304688 54.421875 L 34.480469 59.570313 C 34.652344 59.601563 34.828125 59.613281 35 59.613281 C 35.703125 59.613281 36.382813 59.371094 36.925781 58.914063 C 37.609375 58.34375 38 57.503906 38 56.613281 L 38 52 L 57 52 C 58.652344 52 60 50.652344 60 49 L 60 13 C 60 11.347656 58.652344 10 57 10 L 38 10 L 38 5.382813 C 38 4.496094 37.609375 3.65625 36.925781 3.085938 C 36.417969 2.65625 35.789063 2.414063 35.136719 2.386719 Z M 35.105469 4.390625 C 35.359375 4.414063 35.542969 4.535156 35.640625 4.617188 C 35.777344 4.730469 36 4.980469 36 5.382813 L 36 56.613281 C 36 57.019531 35.777344 57.269531 35.640625 57.382813 C 35.507813 57.496094 35.226563 57.671875 34.828125 57.601563 L 5.652344 52.453125 C 4.695313 52.285156 4 51.457031 4 50.484375 L 4 11.515625 C 4 10.542969 4.695313 9.714844 5.652344 9.546875 L 34.824219 4.398438 C 34.925781 4.382813 35.019531 4.378906 35.105469 4.390625 Z M 38 12 L 57 12 C 57.550781 12 58 12.449219 58 13 L 58 49 C 58 49.550781 57.550781 50 57 50 L 38 50 L 38 44 L 41 44 C 41.550781 44 42 43.554688 42 43 C 42 42.445313 41.550781 42 41 42 L 38 42 L 38 38 L 41 38 C 41.550781 38 42 37.554688 42 37 C 42 36.445313 41.550781 36 41 36 L 38 36 L 38 32 L 41 32 C 41.550781 32 42 31.554688 42 31 C 42 30.445313 41.550781 30 41 30 L 38 30 L 38 26 L 41 26 C 41.550781 26 42 25.554688 42 25 C 42 24.445313 41.550781 24 41 24 L 38 24 L 38 20 L 41 20 C 41.550781 20 42 19.554688 42 19 C 42 18.445313 41.550781 18 41 18 L 38 18 Z M 45 18 C 44.449219 18 44 18.445313 44 19 C 44 19.554688 44.449219 20 45 20 L 51 20 C 51.550781 20 52 19.554688 52 19 C 52 18.445313 51.550781 18 51 18 Z M 12.824219 20.015625 C 12.695313 20.039063 12.570313 20.085938 12.453125 20.160156 C 11.992188 20.460938 11.859375 21.082031 12.160156 21.546875 L 18.308594 31 L 12.160156 40.453125 C 11.859375 40.917969 11.992188 41.539063 12.453125 41.839844 C 12.625 41.949219 12.8125 42 13 42 C 13.324219 42 13.648438 41.839844 13.839844 41.546875 L 19.5 32.835938 L 25.160156 41.546875 C 25.351563 41.839844 25.675781 42 26 42 C 26.1875 42 26.375 41.949219 26.546875 41.839844 C 27.007813 41.539063 27.140625 40.917969 26.839844 40.453125 L 20.691406 31 L 26.839844 21.546875 C 27.140625 21.082031 27.007813 20.460938 26.546875 20.160156 C 26.082031 19.859375 25.460938 19.992188 25.160156 20.453125 L 19.5 29.164063 L 13.839844 20.453125 C 13.613281 20.105469 13.207031 19.945313 12.824219 20.015625 Z M 45 24 C 44.449219 24 44 24.445313 44 25 C 44 25.554688 44.449219 26 45 26 L 51 26 C 51.550781 26 52 25.554688 52 25 C 52 24.445313 51.550781 24 51 24 Z M 45 30 C 44.449219 30 44 30.445313 44 31 C 44 31.554688 44.449219 32 45 32 L 51 32 C 51.550781 32 52 31.554688 52 31 C 52 30.445313 51.550781 30 51 30 Z M 45 36 C 44.449219 36 44 36.445313 44 37 C 44 37.554688 44.449219 38 45 38 L 51 38 C 51.550781 38 52 37.554688 52 37 C 52 36.445313 51.550781 36 51 36 Z M 45 42 C 44.449219 42 44 42.445313 44 43 C 44 43.554688 44.449219 44 45 44 L 51 44 C 51.550781 44 52 43.554688 52 43 C 52 42.445313 51.550781 42 51 42 Z "/>
</g>
</svg>
