<svg xmlns="http://www.w3.org/2000/svg" xmlns:xlink="http://www.w3.org/1999/xlink" viewBox="0 0 64 64" version="1.1">
	<g id="surface1">
		<path style=" " d="M 17.660156 4 C 16.320313 4 15.058594 4.519531 14.121094 5.460938 L 5.460938 14.121094 C 4.519531 15.070313 4 16.320313 4 17.660156 L 4 57 C 4 58.648438 5.351563 60 7 60 L 47 60 C 48.648438 60 50 58.648438 50 57 L 50 46 L 58 46 C 59.101563 46 60 45.101563 60 44 L 60 24 C 60 22.898438 59.101563 22 58 22 L 50 22 L 50 7 C 50 5.351563 48.648438 4 47 4 Z M 18 6 L 47 6 C 47.550781 6 48 6.449219 48 7 L 48 22 L 16 22 C 14.898438 22 14 22.898438 14 24 L 14 44 C 14 45.101563 14.898438 46 16 46 L 48 46 L 48 57 C 48 57.550781 47.550781 58 47 58 L 7 58 C 6.449219 58 6 57.550781 6 57 L 6 18 L 15 18 C 16.652344 18 18 16.652344 18 15 Z M 16 6.5 L 16 15 C 16 15.550781 15.550781 16 15 16 L 6.5 16 C 6.613281 15.835938 6.738281 15.679688 6.882813 15.539063 L 15.539063 6.882813 C 15.679688 6.738281 15.835938 6.609375 16 6.5 Z M 16 24 L 58 24 L 58 44 L 16 44 Z M 24 28 C 23.449219 28 23 28.445313 23 29 C 23 29.554688 23.449219 30 24 30 L 26 30 L 26 39 C 26 39.554688 26.449219 40 27 40 C 27.550781 40 28 39.554688 28 39 L 28 30 L 30 30 C 30.550781 30 31 29.554688 31 29 C 31 28.445313 30.550781 28 30 28 Z M 44 28 C 43.449219 28 43 28.445313 43 29 C 43 29.554688 43.449219 30 44 30 L 46 30 L 46 39 C 46 39.554688 46.449219 40 47 40 C 47.550781 40 48 39.554688 48 39 L 48 30 L 50 30 C 50.550781 30 51 29.554688 51 29 C 51 28.445313 50.550781 28 50 28 Z M 33.859375 28.011719 C 33.730469 28.027344 33.601563 28.070313 33.484375 28.140625 C 33.011719 28.425781 32.859375 29.039063 33.140625 29.515625 L 35.832031 34 L 33.140625 38.484375 C 32.859375 38.957031 33.011719 39.574219 33.484375 39.859375 C 33.644531 39.953125 33.824219 40 34 40 C 34.339844 40 34.671875 39.828125 34.859375 39.515625 L 37 35.941406 L 39.140625 39.515625 C 39.328125 39.828125 39.660156 40 40 40 C 40.175781 40 40.355469 39.953125 40.515625 39.859375 C 40.988281 39.574219 41.140625 38.957031 40.859375 38.484375 L 38.167969 34 L 40.859375 29.515625 C 41.140625 29.042969 40.988281 28.425781 40.515625 28.140625 C 40.042969 27.859375 39.425781 28.011719 39.140625 28.484375 L 37 32.058594 L 34.859375 28.484375 C 34.644531 28.128906 34.246094 27.957031 33.859375 28.011719 Z M 9 52 C 8.449219 52 8 52.445313 8 53 L 8 55 C 8 55.554688 8.449219 56 9 56 C 9.550781 56 10 55.554688 10 55 L 10 53 C 10 52.445313 9.550781 52 9 52 Z M 14 52 C 13.449219 52 13 52.445313 13 53 L 13 55 C 13 55.554688 13.449219 56 14 56 C 14.550781 56 15 55.554688 15 55 L 15 53 C 15 52.445313 14.550781 52 14 52 Z M 19 52 C 18.449219 52 18 52.445313 18 53 L 18 55 C 18 55.554688 18.449219 56 19 56 C 19.550781 56 20 55.554688 20 55 L 20 53 C 20 52.445313 19.550781 52 19 52 Z M 24 52 C 23.449219 52 23 52.445313 23 53 L 23 55 C 23 55.554688 23.449219 56 24 56 C 24.550781 56 25 55.554688 25 55 L 25 53 C 25 52.445313 24.550781 52 24 52 Z M 29 52 C 28.449219 52 28 52.445313 28 53 L 28 55 C 28 55.554688 28.449219 56 29 56 C 29.550781 56 30 55.554688 30 55 L 30 53 C 30 52.445313 29.550781 52 29 52 Z M 34 52 C 33.449219 52 33 52.445313 33 53 L 33 55 C 33 55.554688 33.449219 56 34 56 C 34.550781 56 35 55.554688 35 55 L 35 53 C 35 52.445313 34.550781 52 34 52 Z M 39 52 C 38.449219 52 38 52.445313 38 53 L 38 55 C 38 55.554688 38.449219 56 39 56 C 39.550781 56 40 55.554688 40 55 L 40 53 C 40 52.445313 39.550781 52 39 52 Z M 44 52 C 43.449219 52 43 52.445313 43 53 L 43 55 C 43 55.554688 43.449219 56 44 56 C 44.550781 56 45 55.554688 45 55 L 45 53 C 45 52.445313 44.550781 52 44 52 Z "></path>
	</g>
</svg>