<svg xmlns="http://www.w3.org/2000/svg" xmlns:xlink="http://www.w3.org/1999/xlink" viewBox="0 0 24 24" version="1.1">
    <g id="surface1">
        <path style=" " d="M 4 4 C 2.898438 4 2 4.898438 2 6 L 2 18 C 2 19.101563 2.898438 20 4 20 L 9 20 L 9 18 L 4 18 L 4 6 L 8.59375 6 L 10.59375 8 L 14.53125 8 C 14.304688 7.363281 14.140625 6.695313 14.0625 6 L 11.40625 6 L 9.40625 4 Z M 15 5 C 15 9.40625 18.59375 13 23 13 L 23 11 C 19.675781 11 17 8.324219 17 5 Z M 18 5 C 18 7.75 20.25 10 23 10 L 23 8 C 21.332031 8 20 6.667969 20 5 Z M 21 5 C 21 6.105469 21.894531 7 23 7 L 23 5 Z M 12 10.65625 L 8 16 L 11 16 L 11 22 L 13 22 L 13 16 L 16 16 Z M 20 13.46875 L 20 18 L 15 18 L 15 20 L 20 20 C 21.101563 20 22 19.101563 22 18 L 22 13.9375 C 21.304688 13.859375 20.636719 13.695313 20 13.46875 Z "></path>
    </g>
</svg>