<svg xmlns="http://www.w3.org/2000/svg" xmlns:xlink="http://www.w3.org/1999/xlink" viewBox="0 0 64 64" version="1.1">
    <g id="surface1">
        <path style=" " d="M 32.1875 4.015625 C 24.074219 4.332031 16.859375 9.269531 13.683594 16.777344 C 13.671875 16.792969 13.660156 16.804688 13.652344 16.824219 C 13.460938 17.273438 13.308594 17.734375 13.152344 18.191406 C 13.117188 18.285156 13.078125 18.371094 13.046875 18.464844 C 5.144531 20.351563 -0.421875 27.761719 0.0273438 35.953125 C 0.515625 44.949219 8.171875 52 17.453125 52 L 28 52 L 28 61 C 28 61.550781 28.449219 62 29 62 L 35 62 C 35.550781 62 36 61.550781 36 61 L 36 52 L 51.65625 52 C 58.222656 52 63.757813 46.816406 63.992188 40.453125 C 64.183594 35.246094 60.953125 30.644531 56.324219 28.839844 C 56.273438 28.808594 56.234375 28.765625 56.175781 28.746094 C 55.492188 28.492188 54.78125 28.328125 54.0625 28.203125 C 53.960938 28.1875 53.863281 28.160156 53.765625 28.144531 C 54.0625 26.167969 54.078125 24.152344 53.808594 22.128906 C 52.578125 12.882813 44.96875 5.332031 35.710938 4.171875 C 34.523438 4.023438 33.347656 3.972656 32.1875 4.015625 Z M 33.027344 6.003906 C 33.832031 6.003906 34.644531 6.050781 35.464844 6.15625 C 43.832031 7.203125 50.714844 14.035156 51.828125 22.390625 C 52.078125 24.285156 52.039063 26.171875 51.746094 28.015625 C 51.132813 28.027344 50.519531 28.074219 49.917969 28.179688 C 49.375 28.277344 49.007813 28.792969 49.105469 29.335938 C 49.199219 29.882813 49.71875 30.242188 50.265625 30.148438 C 51.027344 30.015625 51.808594 29.984375 52.582031 30.03125 C 52.855469 30.046875 53.128906 30.078125 53.394531 30.117188 C 53.492188 30.132813 53.589844 30.144531 53.6875 30.160156 C 58.535156 30.992188 62.175781 35.351563 61.992188 40.375 C 61.917969 42.410156 61.179688 44.289063 60 45.84375 L 60 45 C 60 44.445313 59.550781 44 59 44 C 58.449219 44 58 44.445313 58 45 L 58 47 C 58 47.25 58.101563 47.472656 58.253906 47.648438 C 58.125 47.753906 57.988281 47.863281 57.84375 47.96875 C 56.105469 49.238281 53.957031 50 51.65625 50 L 36 50 L 36 36.414063 L 38.292969 38.707031 C 38.683594 39.097656 39.316406 39.097656 39.707031 38.707031 L 43.707031 34.707031 C 43.902344 34.511719 44 34.257813 44 34 C 44 33.742188 43.902344 33.488281 43.707031 33.292969 L 32.707031 22.292969 C 32.316406 21.902344 31.683594 21.902344 31.292969 22.292969 L 20.292969 33.292969 C 19.902344 33.683594 19.902344 34.316406 20.292969 34.707031 L 24.292969 38.707031 C 24.683594 39.097656 25.316406 39.097656 25.707031 38.707031 L 28 36.414063 L 28 50 L 17.453125 50 C 14.597656 50 11.925781 49.238281 9.625 47.921875 C 9.738281 47.972656 9.867188 48 10 48 C 10.550781 48 11 47.554688 11 47 L 11 45 C 11 44.445313 10.550781 44 10 44 C 9.449219 44 9 44.445313 9 45 L 9 47 C 9 47.386719 9.226563 47.710938 9.546875 47.878906 C 9.316406 47.746094 9.089844 47.613281 8.867188 47.46875 C 8.171875 47.046875 7 46.050781 7 46.050781 C 4.125 43.492188 2.246094 39.894531 2.023438 35.84375 C 1.652344 28.992188 6.042969 22.769531 12.4375 20.71875 C 12.152344 22.117188 12 23.546875 12 25 C 12 25.554688 12.449219 26 13 26 C 13.550781 26 14 25.554688 14 25 C 14 23.15625 14.269531 21.355469 14.78125 19.613281 C 14.785156 19.609375 14.785156 19.605469 14.789063 19.597656 C 14.898438 19.222656 15.035156 18.859375 15.167969 18.496094 C 15.230469 18.316406 15.289063 18.140625 15.359375 17.964844 C 18.238281 10.710938 25.230469 6.003906 33.027344 6.003906 Z M 33.574219 9.015625 C 30.742188 8.925781 27.863281 9.578125 25.375 10.933594 C 24.886719 11.195313 24.707031 11.800781 24.96875 12.285156 C 25.152344 12.621094 25.496094 12.808594 25.851563 12.808594 C 26.011719 12.808594 26.175781 12.769531 26.328125 12.6875 C 29.234375 11.109375 32.742188 10.621094 35.953125 11.3125 C 36.492188 11.429688 37.027344 11.082031 37.140625 10.546875 C 37.257813 10.007813 36.917969 9.472656 36.375 9.359375 C 35.457031 9.160156 34.519531 9.046875 33.574219 9.015625 Z M 40.140625 10.761719 C 39.753906 10.726563 39.367188 10.921875 39.171875 11.285156 C 38.910156 11.773438 39.09375 12.382813 39.582031 12.640625 C 40.363281 13.058594 41.109375 13.550781 41.796875 14.109375 C 41.984375 14.261719 42.207031 14.332031 42.425781 14.332031 C 42.71875 14.332031 43.007813 14.207031 43.203125 13.964844 C 43.554688 13.535156 43.484375 12.902344 43.058594 12.558594 C 42.269531 11.917969 41.414063 11.351563 40.523438 10.875 C 40.402344 10.8125 40.273438 10.773438 40.140625 10.761719 Z M 32 24.414063 L 41.585938 34 L 39 36.585938 L 35.707031 33.292969 C 35.421875 33.007813 34.992188 32.921875 34.617188 33.078125 C 34.246094 33.230469 34 33.597656 34 34 L 34 60 L 30 60 L 30 34 C 30 33.597656 29.753906 33.230469 29.382813 33.078125 C 29.007813 32.921875 28.578125 33.007813 28.292969 33.292969 L 25 36.585938 L 22.414063 34 Z M 15 44 C 14.449219 44 14 44.445313 14 45 L 14 47 C 14 47.554688 14.449219 48 15 48 C 15.550781 48 16 47.554688 16 47 L 16 45 C 16 44.445313 15.550781 44 15 44 Z M 20 44 C 19.449219 44 19 44.445313 19 45 L 19 47 C 19 47.554688 19.449219 48 20 48 C 20.550781 48 21 47.554688 21 47 L 21 45 C 21 44.445313 20.550781 44 20 44 Z M 25 44 C 24.449219 44 24 44.445313 24 45 L 24 47 C 24 47.554688 24.449219 48 25 48 C 25.550781 48 26 47.554688 26 47 L 26 45 C 26 44.445313 25.550781 44 25 44 Z M 39 44 C 38.449219 44 38 44.445313 38 45 L 38 47 C 38 47.554688 38.449219 48 39 48 C 39.550781 48 40 47.554688 40 47 L 40 45 C 40 44.445313 39.550781 44 39 44 Z M 44 44 C 43.449219 44 43 44.445313 43 45 L 43 47 C 43 47.554688 43.449219 48 44 48 C 44.550781 48 45 47.554688 45 47 L 45 45 C 45 44.445313 44.550781 44 44 44 Z M 49 44 C 48.449219 44 48 44.445313 48 45 L 48 47 C 48 47.554688 48.449219 48 49 48 C 49.550781 48 50 47.554688 50 47 L 50 45 C 50 44.445313 49.550781 44 49 44 Z M 54 44 C 53.449219 44 53 44.445313 53 45 L 53 47 C 53 47.554688 53.449219 48 54 48 C 54.550781 48 55 47.554688 55 47 L 55 45 C 55 44.445313 54.550781 44 54 44 Z "></path>
    </g>
</svg>