<svg xmlns="http://www.w3.org/2000/svg" xmlns:xlink="http://www.w3.org/1999/xlink" viewBox="0 0 64 64" version="1.1">
	<g id="surface1">
		<path style=" " d="M 23.65625 4 C 22.320313 4 21.0625 4.519531 20.121094 5.464844 L 11.464844 14.121094 C 10.519531 15.066406 10 16.320313 10 17.65625 L 10 57 C 10 58.652344 11.347656 60 13 60 L 53 60 C 54.652344 60 56 58.652344 56 57 L 56 7 C 56 5.347656 54.652344 4 53 4 Z M 24 6 L 53 6 C 53.550781 6 54 6.449219 54 7 L 54 57 C 54 57.550781 53.550781 58 53 58 L 13 58 C 12.449219 58 12 57.550781 12 57 L 12 18 L 21 18 C 22.652344 18 24 16.652344 24 15 Z M 22 6.5 L 22 15 C 22 15.550781 21.550781 16 21 16 L 12.5 16 C 12.613281 15.835938 12.738281 15.675781 12.878906 15.535156 L 21.535156 6.878906 C 21.679688 6.734375 21.835938 6.609375 22 6.5 Z M 28.023438 21.816406 C 27.671875 21.808594 27.316406 21.890625 26.996094 22.0625 C 26.355469 22.417969 25.964844 23.085938 25.964844 23.816406 L 25.964844 42.183594 C 25.964844 42.910156 26.355469 43.582031 26.996094 43.933594 C 27.296875 44.097656 27.632813 44.183594 27.964844 44.183594 C 28.335938 44.183594 28.707031 44.078125 29.03125 43.871094 L 43.53125 34.6875 C 44.113281 34.320313 44.464844 33.6875 44.464844 33 C 44.464844 32.308594 44.113281 31.679688 43.53125 31.3125 L 29.03125 22.125 C 28.722656 21.933594 28.375 21.828125 28.023438 21.816406 Z M 27.964844 23.816406 L 42.464844 33 L 27.964844 42.1875 Z M 15 52 C 14.449219 52 14 52.449219 14 53 L 14 55 C 14 55.550781 14.449219 56 15 56 C 15.550781 56 16 55.550781 16 55 L 16 53 C 16 52.449219 15.550781 52 15 52 Z M 20 52 C 19.449219 52 19 52.449219 19 53 L 19 55 C 19 55.550781 19.449219 56 20 56 C 20.550781 56 21 55.550781 21 55 L 21 53 C 21 52.449219 20.550781 52 20 52 Z M 25 52 C 24.449219 52 24 52.449219 24 53 L 24 55 C 24 55.550781 24.449219 56 25 56 C 25.550781 56 26 55.550781 26 55 L 26 53 C 26 52.449219 25.550781 52 25 52 Z M 30 52 C 29.449219 52 29 52.449219 29 53 L 29 55 C 29 55.550781 29.449219 56 30 56 C 30.550781 56 31 55.550781 31 55 L 31 53 C 31 52.449219 30.550781 52 30 52 Z M 35 52 C 34.449219 52 34 52.449219 34 53 L 34 55 C 34 55.550781 34.449219 56 35 56 C 35.550781 56 36 55.550781 36 55 L 36 53 C 36 52.449219 35.550781 52 35 52 Z M 40 52 C 39.449219 52 39 52.449219 39 53 L 39 55 C 39 55.550781 39.449219 56 40 56 C 40.550781 56 41 55.550781 41 55 L 41 53 C 41 52.449219 40.550781 52 40 52 Z M 45 52 C 44.449219 52 44 52.449219 44 53 L 44 55 C 44 55.550781 44.449219 56 45 56 C 45.550781 56 46 55.550781 46 55 L 46 53 C 46 52.449219 45.550781 52 45 52 Z M 50 52 C 49.449219 52 49 52.449219 49 53 L 49 55 C 49 55.550781 49.449219 56 50 56 C 50.550781 56 51 55.550781 51 55 L 51 53 C 51 52.449219 50.550781 52 50 52 Z "></path>
	</g>
</svg>