<svg xmlns="http://www.w3.org/2000/svg" xmlns:xlink="http://www.w3.org/1999/xlink" viewBox="0 0 64 64" version="1.1">
	<g id="surface1">
		<path style=" " d="M 21.65625 4 C 20.320313 4 19.0625 4.519531 18.121094 5.464844 L 9.464844 14.121094 C 8.519531 15.066406 8 16.320313 8 17.65625 L 8 57 C 8 58.652344 9.347656 60 11 60 L 51 60 C 52.652344 60 54 58.652344 54 57 L 54 7 C 54 5.347656 52.652344 4 51 4 Z M 22 6 L 51 6 C 51.550781 6 52 6.449219 52 7 L 52 57 C 52 57.550781 51.550781 58 51 58 L 11 58 C 10.449219 58 10 57.550781 10 57 L 10 18 L 19 18 C 20.652344 18 22 16.652344 22 15 Z M 20 6.5 L 20 15 C 20 15.550781 19.550781 16 19 16 L 10.5 16 C 10.613281 15.832031 10.738281 15.675781 10.878906 15.535156 L 19.535156 6.878906 C 19.679688 6.734375 19.835938 6.609375 20 6.5 Z M 21.140625 23.011719 C 21.015625 22.992188 20.878906 22.996094 20.746094 23.03125 C 20.210938 23.175781 19.894531 23.722656 20.03125 24.253906 L 25.03125 43.253906 C 25.148438 43.691406 25.539063 43.996094 25.984375 44 L 26 44 C 26.441406 44 26.832031 43.710938 26.957031 43.28125 L 31 29.546875 L 35.042969 43.28125 C 35.167969 43.707031 35.558594 44 36 44 L 36.015625 44 C 36.460938 43.992188 36.851563 43.6875 36.96875 43.253906 L 41.96875 24.253906 C 42.105469 23.722656 41.789063 23.175781 41.253906 23.03125 C 40.71875 22.890625 40.171875 23.210938 40.03125 23.746094 L 35.945313 39.273438 L 31.957031 25.71875 C 31.832031 25.292969 31.445313 25 31 25 C 30.554688 25 30.167969 25.292969 30.042969 25.71875 L 26.054688 39.277344 L 21.96875 23.746094 C 21.863281 23.347656 21.527344 23.066406 21.140625 23.011719 Z M 13 52 C 12.449219 52 12 52.445313 12 53 L 12 55 C 12 55.554688 12.449219 56 13 56 C 13.550781 56 14 55.554688 14 55 L 14 53 C 14 52.445313 13.550781 52 13 52 Z M 18 52 C 17.449219 52 17 52.445313 17 53 L 17 55 C 17 55.554688 17.449219 56 18 56 C 18.550781 56 19 55.554688 19 55 L 19 53 C 19 52.445313 18.550781 52 18 52 Z M 23 52 C 22.449219 52 22 52.445313 22 53 L 22 55 C 22 55.554688 22.449219 56 23 56 C 23.550781 56 24 55.554688 24 55 L 24 53 C 24 52.445313 23.550781 52 23 52 Z M 28 52 C 27.449219 52 27 52.445313 27 53 L 27 55 C 27 55.554688 27.449219 56 28 56 C 28.550781 56 29 55.554688 29 55 L 29 53 C 29 52.445313 28.550781 52 28 52 Z M 33 52 C 32.449219 52 32 52.445313 32 53 L 32 55 C 32 55.554688 32.449219 56 33 56 C 33.550781 56 34 55.554688 34 55 L 34 53 C 34 52.445313 33.550781 52 33 52 Z M 38 52 C 37.449219 52 37 52.445313 37 53 L 37 55 C 37 55.554688 37.449219 56 38 56 C 38.550781 56 39 55.554688 39 55 L 39 53 C 39 52.445313 38.550781 52 38 52 Z M 43 52 C 42.449219 52 42 52.445313 42 53 L 42 55 C 42 55.554688 42.449219 56 43 56 C 43.550781 56 44 55.554688 44 55 L 44 53 C 44 52.445313 43.550781 52 43 52 Z M 48 52 C 47.449219 52 47 52.445313 47 53 L 47 55 C 47 55.554688 47.449219 56 48 56 C 48.550781 56 49 55.554688 49 55 L 49 53 C 49 52.445313 48.550781 52 48 52 Z "></path>
	</g>
</svg>